ISO-10303-21;
HEADER;
/* Generated by software containing ST-Developer
 * from STEP Tools, Inc. (www.steptools.com) 
 */

FILE_DESCRIPTION(
/* description */ (''),
/* implementation_level */ '2;1');

FILE_NAME(
/* name */ 'POM-5038P-C3310-R.ipt.step',
/* time_stamp */ '2024-02-07T22:37:59-05:00',
/* author */ ('vandenbroek'),
/* organization */ (''),
/* preprocessor_version */ 'ST-DEVELOPER v20',
/* originating_system */ 'Autodesk Inventor 2024',
/* authorisation */ '');

FILE_SCHEMA (('AUTOMOTIVE_DESIGN { 1 0 10303 214 3 1 1 }'));
ENDSEC;

DATA;
#10=MECHANICAL_DESIGN_GEOMETRIC_PRESENTATION_REPRESENTATION('',(#815,#816,
#817,#818,#819,#820,#821,#822,#823,#824,#825,#826,#827,#828,#829,#830,#831,
#832,#833,#834,#835,#836,#837,#838,#839,#840,#841,#842,#843,#844,#845,#846,
#847,#848,#849,#850,#851,#852,#853,#854,#855,#856,#857,#858,#859,#860,#861,
#862,#863,#864,#865,#866,#867,#868,#869,#870,#871),#1538);
#11=SHAPE_REPRESENTATION_RELATIONSHIP('SRR','None',#1545,#12);
#12=ADVANCED_BREP_SHAPE_REPRESENTATION('',(#13,#14,#15,#16),#1537);
#13=MANIFOLD_SOLID_BREP('Solid1',#926);
#14=MANIFOLD_SOLID_BREP('Solid1',#927);
#15=MANIFOLD_SOLID_BREP('Solid2',#928);
#16=MANIFOLD_SOLID_BREP('Solid3',#929);
#17=TOROIDAL_SURFACE('',#998,2.8,0.2);
#18=TOROIDAL_SURFACE('',#1005,2.75,0.25);
#19=FACE_BOUND('',#129,.T.);
#20=FACE_BOUND('',#132,.T.);
#21=FACE_BOUND('',#134,.T.);
#22=FACE_BOUND('',#150,.T.);
#23=FACE_BOUND('',#151,.T.);
#24=FACE_BOUND('',#152,.T.);
#25=FACE_BOUND('',#154,.T.);
#26=FACE_BOUND('',#163,.T.);
#27=FACE_BOUND('',#170,.T.);
#28=FACE_BOUND('',#172,.T.);
#29=PLANE('',#955);
#30=PLANE('',#959);
#31=PLANE('',#963);
#32=PLANE('',#967);
#33=PLANE('',#968);
#34=PLANE('',#972);
#35=PLANE('',#973);
#36=PLANE('',#974);
#37=PLANE('',#975);
#38=PLANE('',#976);
#39=PLANE('',#977);
#40=PLANE('',#978);
#41=PLANE('',#979);
#42=PLANE('',#980);
#43=PLANE('',#981);
#44=PLANE('',#982);
#45=PLANE('',#983);
#46=PLANE('',#987);
#47=PLANE('',#988);
#48=PLANE('',#990);
#49=PLANE('',#991);
#50=PLANE('',#1008);
#51=PLANE('',#1009);
#52=PLANE('',#1011);
#53=PLANE('',#1020);
#54=PLANE('',#1021);
#55=PLANE('',#1022);
#56=PLANE('',#1023);
#57=PLANE('',#1024);
#58=PLANE('',#1025);
#59=PLANE('',#1026);
#60=PLANE('',#1027);
#61=PLANE('',#1028);
#62=PLANE('',#1029);
#63=PLANE('',#1030);
#64=PLANE('',#1031);
#65=PLANE('',#1032);
#66=PLANE('',#1033);
#67=PLANE('',#1034);
#68=PLANE('',#1035);
#69=FACE_OUTER_BOUND('',#123,.T.);
#70=FACE_OUTER_BOUND('',#124,.T.);
#71=FACE_OUTER_BOUND('',#125,.T.);
#72=FACE_OUTER_BOUND('',#126,.T.);
#73=FACE_OUTER_BOUND('',#127,.T.);
#74=FACE_OUTER_BOUND('',#128,.T.);
#75=FACE_OUTER_BOUND('',#130,.T.);
#76=FACE_OUTER_BOUND('',#131,.T.);
#77=FACE_OUTER_BOUND('',#133,.T.);
#78=FACE_OUTER_BOUND('',#135,.T.);
#79=FACE_OUTER_BOUND('',#136,.T.);
#80=FACE_OUTER_BOUND('',#137,.T.);
#81=FACE_OUTER_BOUND('',#138,.T.);
#82=FACE_OUTER_BOUND('',#139,.T.);
#83=FACE_OUTER_BOUND('',#140,.T.);
#84=FACE_OUTER_BOUND('',#141,.T.);
#85=FACE_OUTER_BOUND('',#142,.T.);
#86=FACE_OUTER_BOUND('',#143,.T.);
#87=FACE_OUTER_BOUND('',#144,.T.);
#88=FACE_OUTER_BOUND('',#145,.T.);
#89=FACE_OUTER_BOUND('',#146,.T.);
#90=FACE_OUTER_BOUND('',#147,.T.);
#91=FACE_OUTER_BOUND('',#148,.T.);
#92=FACE_OUTER_BOUND('',#149,.T.);
#93=FACE_OUTER_BOUND('',#153,.T.);
#94=FACE_OUTER_BOUND('',#155,.T.);
#95=FACE_OUTER_BOUND('',#156,.T.);
#96=FACE_OUTER_BOUND('',#157,.T.);
#97=FACE_OUTER_BOUND('',#158,.T.);
#98=FACE_OUTER_BOUND('',#159,.T.);
#99=FACE_OUTER_BOUND('',#160,.T.);
#100=FACE_OUTER_BOUND('',#161,.T.);
#101=FACE_OUTER_BOUND('',#162,.T.);
#102=FACE_OUTER_BOUND('',#164,.T.);
#103=FACE_OUTER_BOUND('',#165,.T.);
#104=FACE_OUTER_BOUND('',#166,.T.);
#105=FACE_OUTER_BOUND('',#167,.T.);
#106=FACE_OUTER_BOUND('',#168,.T.);
#107=FACE_OUTER_BOUND('',#169,.T.);
#108=FACE_OUTER_BOUND('',#171,.T.);
#109=FACE_OUTER_BOUND('',#173,.T.);
#110=FACE_OUTER_BOUND('',#174,.T.);
#111=FACE_OUTER_BOUND('',#175,.T.);
#112=FACE_OUTER_BOUND('',#176,.T.);
#113=FACE_OUTER_BOUND('',#177,.T.);
#114=FACE_OUTER_BOUND('',#178,.T.);
#115=FACE_OUTER_BOUND('',#179,.T.);
#116=FACE_OUTER_BOUND('',#180,.T.);
#117=FACE_OUTER_BOUND('',#181,.T.);
#118=FACE_OUTER_BOUND('',#182,.T.);
#119=FACE_OUTER_BOUND('',#183,.T.);
#120=FACE_OUTER_BOUND('',#184,.T.);
#121=FACE_OUTER_BOUND('',#185,.T.);
#122=FACE_OUTER_BOUND('',#186,.T.);
#123=EDGE_LOOP('',(#575,#576,#577,#578));
#124=EDGE_LOOP('',(#579));
#125=EDGE_LOOP('',(#580,#581,#582,#583));
#126=EDGE_LOOP('',(#584));
#127=EDGE_LOOP('',(#585,#586,#587,#588));
#128=EDGE_LOOP('',(#589));
#129=EDGE_LOOP('',(#590));
#130=EDGE_LOOP('',(#591,#592,#593,#594));
#131=EDGE_LOOP('',(#595));
#132=EDGE_LOOP('',(#596));
#133=EDGE_LOOP('',(#597));
#134=EDGE_LOOP('',(#598));
#135=EDGE_LOOP('',(#599,#600,#601,#602));
#136=EDGE_LOOP('',(#603,#604,#605,#606));
#137=EDGE_LOOP('',(#607,#608,#609,#610));
#138=EDGE_LOOP('',(#611,#612,#613,#614));
#139=EDGE_LOOP('',(#615,#616,#617,#618));
#140=EDGE_LOOP('',(#619,#620,#621,#622));
#141=EDGE_LOOP('',(#623,#624,#625,#626));
#142=EDGE_LOOP('',(#627,#628,#629,#630));
#143=EDGE_LOOP('',(#631,#632,#633,#634));
#144=EDGE_LOOP('',(#635,#636,#637,#638));
#145=EDGE_LOOP('',(#639,#640,#641,#642));
#146=EDGE_LOOP('',(#643,#644,#645,#646));
#147=EDGE_LOOP('',(#647,#648,#649,#650));
#148=EDGE_LOOP('',(#651,#652,#653,#654));
#149=EDGE_LOOP('',(#655));
#150=EDGE_LOOP('',(#656));
#151=EDGE_LOOP('',(#657));
#152=EDGE_LOOP('',(#658,#659,#660,#661,#662,#663,#664,#665,#666,#667,#668,
#669));
#153=EDGE_LOOP('',(#670));
#154=EDGE_LOOP('',(#671));
#155=EDGE_LOOP('',(#672,#673,#674,#675,#676,#677,#678,#679,#680,#681,#682,
#683));
#156=EDGE_LOOP('',(#684));
#157=EDGE_LOOP('',(#685,#686,#687,#688));
#158=EDGE_LOOP('',(#689,#690,#691,#692,#693));
#159=EDGE_LOOP('',(#694,#695,#696,#697,#698,#699));
#160=EDGE_LOOP('',(#700,#701,#702,#703,#704,#705));
#161=EDGE_LOOP('',(#706,#707,#708,#709,#710));
#162=EDGE_LOOP('',(#711));
#163=EDGE_LOOP('',(#712));
#164=EDGE_LOOP('',(#713));
#165=EDGE_LOOP('',(#714));
#166=EDGE_LOOP('',(#715,#716,#717,#718));
#167=EDGE_LOOP('',(#719,#720,#721,#722));
#168=EDGE_LOOP('',(#723,#724,#725,#726));
#169=EDGE_LOOP('',(#727));
#170=EDGE_LOOP('',(#728));
#171=EDGE_LOOP('',(#729));
#172=EDGE_LOOP('',(#730));
#173=EDGE_LOOP('',(#731,#732,#733,#734));
#174=EDGE_LOOP('',(#735,#736,#737,#738));
#175=EDGE_LOOP('',(#739,#740,#741,#742));
#176=EDGE_LOOP('',(#743,#744,#745,#746));
#177=EDGE_LOOP('',(#747,#748,#749,#750));
#178=EDGE_LOOP('',(#751,#752,#753,#754));
#179=EDGE_LOOP('',(#755,#756,#757,#758));
#180=EDGE_LOOP('',(#759,#760,#761,#762));
#181=EDGE_LOOP('',(#763,#764,#765,#766));
#182=EDGE_LOOP('',(#767,#768,#769,#770));
#183=EDGE_LOOP('',(#771,#772,#773,#774));
#184=EDGE_LOOP('',(#775,#776,#777,#778));
#185=EDGE_LOOP('',(#779,#780,#781,#782,#783,#784,#785,#786,#787,#788,#789,
#790));
#186=EDGE_LOOP('',(#791,#792,#793,#794,#795,#796,#797,#798,#799,#800,#801,
#802));
#187=LINE('',#1295,#271);
#188=LINE('',#1302,#272);
#189=LINE('',#1309,#273);
#190=LINE('',#1316,#274);
#191=LINE('',#1324,#275);
#192=LINE('',#1329,#276);
#193=LINE('',#1331,#277);
#194=LINE('',#1333,#278);
#195=LINE('',#1334,#279);
#196=LINE('',#1337,#280);
#197=LINE('',#1339,#281);
#198=LINE('',#1340,#282);
#199=LINE('',#1343,#283);
#200=LINE('',#1345,#284);
#201=LINE('',#1346,#285);
#202=LINE('',#1349,#286);
#203=LINE('',#1351,#287);
#204=LINE('',#1352,#288);
#205=LINE('',#1355,#289);
#206=LINE('',#1357,#290);
#207=LINE('',#1358,#291);
#208=LINE('',#1361,#292);
#209=LINE('',#1363,#293);
#210=LINE('',#1364,#294);
#211=LINE('',#1367,#295);
#212=LINE('',#1369,#296);
#213=LINE('',#1370,#297);
#214=LINE('',#1373,#298);
#215=LINE('',#1375,#299);
#216=LINE('',#1376,#300);
#217=LINE('',#1379,#301);
#218=LINE('',#1381,#302);
#219=LINE('',#1382,#303);
#220=LINE('',#1385,#304);
#221=LINE('',#1387,#305);
#222=LINE('',#1388,#306);
#223=LINE('',#1391,#307);
#224=LINE('',#1393,#308);
#225=LINE('',#1394,#309);
#226=LINE('',#1396,#310);
#227=LINE('',#1397,#311);
#228=LINE('',#1402,#312);
#229=LINE('',#1415,#313);
#230=LINE('',#1418,#314);
#231=LINE('',#1430,#315);
#232=LINE('',#1446,#316);
#233=LINE('',#1451,#317);
#234=LINE('',#1457,#318);
#235=LINE('',#1464,#319);
#236=LINE('',#1466,#320);
#237=LINE('',#1468,#321);
#238=LINE('',#1469,#322);
#239=LINE('',#1472,#323);
#240=LINE('',#1474,#324);
#241=LINE('',#1475,#325);
#242=LINE('',#1478,#326);
#243=LINE('',#1480,#327);
#244=LINE('',#1481,#328);
#245=LINE('',#1484,#329);
#246=LINE('',#1486,#330);
#247=LINE('',#1487,#331);
#248=LINE('',#1490,#332);
#249=LINE('',#1492,#333);
#250=LINE('',#1493,#334);
#251=LINE('',#1496,#335);
#252=LINE('',#1498,#336);
#253=LINE('',#1499,#337);
#254=LINE('',#1502,#338);
#255=LINE('',#1504,#339);
#256=LINE('',#1505,#340);
#257=LINE('',#1508,#341);
#258=LINE('',#1510,#342);
#259=LINE('',#1511,#343);
#260=LINE('',#1514,#344);
#261=LINE('',#1516,#345);
#262=LINE('',#1517,#346);
#263=LINE('',#1520,#347);
#264=LINE('',#1522,#348);
#265=LINE('',#1523,#349);
#266=LINE('',#1526,#350);
#267=LINE('',#1528,#351);
#268=LINE('',#1529,#352);
#269=LINE('',#1531,#353);
#270=LINE('',#1532,#354);
#271=VECTOR('',#1042,0.225);
#272=VECTOR('',#1051,0.225);
#273=VECTOR('',#1060,0.5);
#274=VECTOR('',#1069,0.5);
#275=VECTOR('',#1080,0.75);
#276=VECTOR('',#1085,10.);
#277=VECTOR('',#1086,10.);
#278=VECTOR('',#1087,10.);
#279=VECTOR('',#1088,10.);
#280=VECTOR('',#1091,10.);
#281=VECTOR('',#1092,10.);
#282=VECTOR('',#1093,10.);
#283=VECTOR('',#1096,10.);
#284=VECTOR('',#1097,10.);
#285=VECTOR('',#1098,10.);
#286=VECTOR('',#1101,10.);
#287=VECTOR('',#1102,10.);
#288=VECTOR('',#1103,10.);
#289=VECTOR('',#1106,10.);
#290=VECTOR('',#1107,10.);
#291=VECTOR('',#1108,10.);
#292=VECTOR('',#1111,10.);
#293=VECTOR('',#1112,10.);
#294=VECTOR('',#1113,10.);
#295=VECTOR('',#1116,10.);
#296=VECTOR('',#1117,10.);
#297=VECTOR('',#1118,10.);
#298=VECTOR('',#1121,10.);
#299=VECTOR('',#1122,10.);
#300=VECTOR('',#1123,10.);
#301=VECTOR('',#1126,10.);
#302=VECTOR('',#1127,10.);
#303=VECTOR('',#1128,10.);
#304=VECTOR('',#1131,10.);
#305=VECTOR('',#1132,10.);
#306=VECTOR('',#1133,10.);
#307=VECTOR('',#1136,10.);
#308=VECTOR('',#1137,10.);
#309=VECTOR('',#1138,10.);
#310=VECTOR('',#1141,10.);
#311=VECTOR('',#1142,10.);
#312=VECTOR('',#1147,2.45);
#313=VECTOR('',#1166,2.6);
#314=VECTOR('',#1169,2.6);
#315=VECTOR('',#1184,3.);
#316=VECTOR('',#1207,2.6);
#317=VECTOR('',#1212,0.5);
#318=VECTOR('',#1219,0.75);
#319=VECTOR('',#1228,10.);
#320=VECTOR('',#1229,10.);
#321=VECTOR('',#1230,10.);
#322=VECTOR('',#1231,10.);
#323=VECTOR('',#1234,10.);
#324=VECTOR('',#1235,10.);
#325=VECTOR('',#1236,10.);
#326=VECTOR('',#1239,10.);
#327=VECTOR('',#1240,10.);
#328=VECTOR('',#1241,10.);
#329=VECTOR('',#1244,10.);
#330=VECTOR('',#1245,10.);
#331=VECTOR('',#1246,10.);
#332=VECTOR('',#1249,10.);
#333=VECTOR('',#1250,10.);
#334=VECTOR('',#1251,10.);
#335=VECTOR('',#1254,10.);
#336=VECTOR('',#1255,10.);
#337=VECTOR('',#1256,10.);
#338=VECTOR('',#1259,10.);
#339=VECTOR('',#1260,10.);
#340=VECTOR('',#1261,10.);
#341=VECTOR('',#1264,10.);
#342=VECTOR('',#1265,10.);
#343=VECTOR('',#1266,10.);
#344=VECTOR('',#1269,10.);
#345=VECTOR('',#1270,10.);
#346=VECTOR('',#1271,10.);
#347=VECTOR('',#1274,10.);
#348=VECTOR('',#1275,10.);
#349=VECTOR('',#1276,10.);
#350=VECTOR('',#1279,10.);
#351=VECTOR('',#1280,10.);
#352=VECTOR('',#1281,10.);
#353=VECTOR('',#1284,10.);
#354=VECTOR('',#1285,10.);
#355=CIRCLE('',#953,0.225);
#356=CIRCLE('',#954,0.225);
#357=CIRCLE('',#957,0.225);
#358=CIRCLE('',#958,0.225);
#359=CIRCLE('',#961,0.5);
#360=CIRCLE('',#962,0.5);
#361=CIRCLE('',#965,0.5);
#362=CIRCLE('',#966,0.5);
#363=CIRCLE('',#969,0.75);
#364=CIRCLE('',#971,0.75);
#365=CIRCLE('',#985,2.45);
#366=CIRCLE('',#986,2.45);
#367=CIRCLE('',#989,2.6);
#368=CIRCLE('',#992,2.6);
#369=CIRCLE('',#994,2.6);
#370=CIRCLE('',#996,2.6);
#371=CIRCLE('',#997,2.6);
#372=CIRCLE('',#999,0.2);
#373=CIRCLE('',#1000,3.);
#374=CIRCLE('',#1001,3.);
#375=CIRCLE('',#1003,3.);
#376=CIRCLE('',#1004,3.);
#377=CIRCLE('',#1006,0.25);
#378=CIRCLE('',#1007,2.75);
#379=CIRCLE('',#1010,2.6);
#380=CIRCLE('',#1012,2.6);
#381=CIRCLE('',#1015,0.5);
#382=CIRCLE('',#1016,0.5);
#383=CIRCLE('',#1018,0.75);
#384=CIRCLE('',#1019,0.75);
#385=VERTEX_POINT('',#1292);
#386=VERTEX_POINT('',#1294);
#387=VERTEX_POINT('',#1299);
#388=VERTEX_POINT('',#1301);
#389=VERTEX_POINT('',#1306);
#390=VERTEX_POINT('',#1308);
#391=VERTEX_POINT('',#1313);
#392=VERTEX_POINT('',#1315);
#393=VERTEX_POINT('',#1320);
#394=VERTEX_POINT('',#1323);
#395=VERTEX_POINT('',#1327);
#396=VERTEX_POINT('',#1328);
#397=VERTEX_POINT('',#1330);
#398=VERTEX_POINT('',#1332);
#399=VERTEX_POINT('',#1336);
#400=VERTEX_POINT('',#1338);
#401=VERTEX_POINT('',#1342);
#402=VERTEX_POINT('',#1344);
#403=VERTEX_POINT('',#1348);
#404=VERTEX_POINT('',#1350);
#405=VERTEX_POINT('',#1354);
#406=VERTEX_POINT('',#1356);
#407=VERTEX_POINT('',#1360);
#408=VERTEX_POINT('',#1362);
#409=VERTEX_POINT('',#1366);
#410=VERTEX_POINT('',#1368);
#411=VERTEX_POINT('',#1372);
#412=VERTEX_POINT('',#1374);
#413=VERTEX_POINT('',#1378);
#414=VERTEX_POINT('',#1380);
#415=VERTEX_POINT('',#1384);
#416=VERTEX_POINT('',#1386);
#417=VERTEX_POINT('',#1390);
#418=VERTEX_POINT('',#1392);
#419=VERTEX_POINT('',#1399);
#420=VERTEX_POINT('',#1401);
#421=VERTEX_POINT('',#1406);
#422=VERTEX_POINT('',#1410);
#423=VERTEX_POINT('',#1413);
#424=VERTEX_POINT('',#1417);
#425=VERTEX_POINT('',#1419);
#426=VERTEX_POINT('',#1423);
#427=VERTEX_POINT('',#1425);
#428=VERTEX_POINT('',#1429);
#429=VERTEX_POINT('',#1431);
#430=VERTEX_POINT('',#1435);
#431=VERTEX_POINT('',#1440);
#432=VERTEX_POINT('',#1443);
#433=VERTEX_POINT('',#1448);
#434=VERTEX_POINT('',#1450);
#435=VERTEX_POINT('',#1454);
#436=VERTEX_POINT('',#1456);
#437=VERTEX_POINT('',#1462);
#438=VERTEX_POINT('',#1463);
#439=VERTEX_POINT('',#1465);
#440=VERTEX_POINT('',#1467);
#441=VERTEX_POINT('',#1471);
#442=VERTEX_POINT('',#1473);
#443=VERTEX_POINT('',#1477);
#444=VERTEX_POINT('',#1479);
#445=VERTEX_POINT('',#1483);
#446=VERTEX_POINT('',#1485);
#447=VERTEX_POINT('',#1489);
#448=VERTEX_POINT('',#1491);
#449=VERTEX_POINT('',#1495);
#450=VERTEX_POINT('',#1497);
#451=VERTEX_POINT('',#1501);
#452=VERTEX_POINT('',#1503);
#453=VERTEX_POINT('',#1507);
#454=VERTEX_POINT('',#1509);
#455=VERTEX_POINT('',#1513);
#456=VERTEX_POINT('',#1515);
#457=VERTEX_POINT('',#1519);
#458=VERTEX_POINT('',#1521);
#459=VERTEX_POINT('',#1525);
#460=VERTEX_POINT('',#1527);
#461=EDGE_CURVE('',#385,#385,#355,.T.);
#462=EDGE_CURVE('',#385,#386,#187,.T.);
#463=EDGE_CURVE('',#386,#386,#356,.T.);
#464=EDGE_CURVE('',#387,#387,#357,.T.);
#465=EDGE_CURVE('',#387,#388,#188,.T.);
#466=EDGE_CURVE('',#388,#388,#358,.T.);
#467=EDGE_CURVE('',#389,#389,#359,.T.);
#468=EDGE_CURVE('',#389,#390,#189,.T.);
#469=EDGE_CURVE('',#390,#390,#360,.T.);
#470=EDGE_CURVE('',#391,#391,#361,.T.);
#471=EDGE_CURVE('',#391,#392,#190,.T.);
#472=EDGE_CURVE('',#392,#392,#362,.T.);
#473=EDGE_CURVE('',#393,#393,#363,.T.);
#474=EDGE_CURVE('',#393,#394,#191,.T.);
#475=EDGE_CURVE('',#394,#394,#364,.T.);
#476=EDGE_CURVE('',#395,#396,#192,.T.);
#477=EDGE_CURVE('',#395,#397,#193,.T.);
#478=EDGE_CURVE('',#398,#397,#194,.T.);
#479=EDGE_CURVE('',#396,#398,#195,.T.);
#480=EDGE_CURVE('',#399,#395,#196,.T.);
#481=EDGE_CURVE('',#399,#400,#197,.T.);
#482=EDGE_CURVE('',#397,#400,#198,.T.);
#483=EDGE_CURVE('',#401,#399,#199,.T.);
#484=EDGE_CURVE('',#401,#402,#200,.T.);
#485=EDGE_CURVE('',#400,#402,#201,.T.);
#486=EDGE_CURVE('',#403,#401,#202,.T.);
#487=EDGE_CURVE('',#403,#404,#203,.T.);
#488=EDGE_CURVE('',#402,#404,#204,.T.);
#489=EDGE_CURVE('',#405,#403,#205,.T.);
#490=EDGE_CURVE('',#405,#406,#206,.T.);
#491=EDGE_CURVE('',#404,#406,#207,.T.);
#492=EDGE_CURVE('',#407,#405,#208,.T.);
#493=EDGE_CURVE('',#407,#408,#209,.T.);
#494=EDGE_CURVE('',#406,#408,#210,.T.);
#495=EDGE_CURVE('',#409,#407,#211,.T.);
#496=EDGE_CURVE('',#409,#410,#212,.T.);
#497=EDGE_CURVE('',#408,#410,#213,.T.);
#498=EDGE_CURVE('',#411,#409,#214,.T.);
#499=EDGE_CURVE('',#411,#412,#215,.T.);
#500=EDGE_CURVE('',#410,#412,#216,.T.);
#501=EDGE_CURVE('',#413,#411,#217,.T.);
#502=EDGE_CURVE('',#413,#414,#218,.T.);
#503=EDGE_CURVE('',#412,#414,#219,.T.);
#504=EDGE_CURVE('',#415,#413,#220,.T.);
#505=EDGE_CURVE('',#415,#416,#221,.T.);
#506=EDGE_CURVE('',#414,#416,#222,.T.);
#507=EDGE_CURVE('',#417,#415,#223,.T.);
#508=EDGE_CURVE('',#417,#418,#224,.T.);
#509=EDGE_CURVE('',#416,#418,#225,.T.);
#510=EDGE_CURVE('',#396,#417,#226,.T.);
#511=EDGE_CURVE('',#418,#398,#227,.T.);
#512=EDGE_CURVE('',#419,#419,#365,.T.);
#513=EDGE_CURVE('',#419,#420,#228,.T.);
#514=EDGE_CURVE('',#420,#420,#366,.T.);
#515=EDGE_CURVE('',#421,#421,#367,.T.);
#516=EDGE_CURVE('',#422,#422,#368,.T.);
#517=EDGE_CURVE('',#423,#423,#369,.T.);
#518=EDGE_CURVE('',#423,#422,#229,.T.);
#519=EDGE_CURVE('',#421,#424,#230,.T.);
#520=EDGE_CURVE('',#425,#424,#370,.T.);
#521=EDGE_CURVE('',#424,#425,#371,.T.);
#522=EDGE_CURVE('',#425,#426,#372,.T.);
#523=EDGE_CURVE('',#426,#427,#373,.T.);
#524=EDGE_CURVE('',#427,#426,#374,.T.);
#525=EDGE_CURVE('',#427,#428,#231,.T.);
#526=EDGE_CURVE('',#429,#428,#375,.T.);
#527=EDGE_CURVE('',#428,#429,#376,.T.);
#528=EDGE_CURVE('',#429,#430,#377,.T.);
#529=EDGE_CURVE('',#430,#430,#378,.T.);
#530=EDGE_CURVE('',#431,#431,#379,.T.);
#531=EDGE_CURVE('',#432,#432,#380,.T.);
#532=EDGE_CURVE('',#431,#432,#232,.T.);
#533=EDGE_CURVE('',#433,#433,#381,.T.);
#534=EDGE_CURVE('',#433,#434,#233,.T.);
#535=EDGE_CURVE('',#434,#434,#382,.T.);
#536=EDGE_CURVE('',#435,#435,#383,.T.);
#537=EDGE_CURVE('',#435,#436,#234,.T.);
#538=EDGE_CURVE('',#436,#436,#384,.T.);
#539=EDGE_CURVE('',#437,#438,#235,.T.);
#540=EDGE_CURVE('',#439,#437,#236,.T.);
#541=EDGE_CURVE('',#440,#439,#237,.T.);
#542=EDGE_CURVE('',#440,#438,#238,.T.);
#543=EDGE_CURVE('',#441,#437,#239,.T.);
#544=EDGE_CURVE('',#442,#441,#240,.T.);
#545=EDGE_CURVE('',#439,#442,#241,.T.);
#546=EDGE_CURVE('',#443,#441,#242,.T.);
#547=EDGE_CURVE('',#444,#443,#243,.T.);
#548=EDGE_CURVE('',#442,#444,#244,.T.);
#549=EDGE_CURVE('',#445,#443,#245,.T.);
#550=EDGE_CURVE('',#446,#445,#246,.T.);
#551=EDGE_CURVE('',#444,#446,#247,.T.);
#552=EDGE_CURVE('',#447,#445,#248,.T.);
#553=EDGE_CURVE('',#448,#447,#249,.T.);
#554=EDGE_CURVE('',#446,#448,#250,.T.);
#555=EDGE_CURVE('',#449,#447,#251,.T.);
#556=EDGE_CURVE('',#450,#449,#252,.T.);
#557=EDGE_CURVE('',#448,#450,#253,.T.);
#558=EDGE_CURVE('',#451,#449,#254,.T.);
#559=EDGE_CURVE('',#452,#451,#255,.T.);
#560=EDGE_CURVE('',#450,#452,#256,.T.);
#561=EDGE_CURVE('',#453,#451,#257,.T.);
#562=EDGE_CURVE('',#454,#453,#258,.T.);
#563=EDGE_CURVE('',#452,#454,#259,.T.);
#564=EDGE_CURVE('',#455,#453,#260,.T.);
#565=EDGE_CURVE('',#456,#455,#261,.T.);
#566=EDGE_CURVE('',#454,#456,#262,.T.);
#567=EDGE_CURVE('',#457,#455,#263,.T.);
#568=EDGE_CURVE('',#458,#457,#264,.T.);
#569=EDGE_CURVE('',#456,#458,#265,.T.);
#570=EDGE_CURVE('',#459,#457,#266,.T.);
#571=EDGE_CURVE('',#460,#459,#267,.T.);
#572=EDGE_CURVE('',#458,#460,#268,.T.);
#573=EDGE_CURVE('',#438,#459,#269,.T.);
#574=EDGE_CURVE('',#460,#440,#270,.T.);
#575=ORIENTED_EDGE('',*,*,#461,.F.);
#576=ORIENTED_EDGE('',*,*,#462,.T.);
#577=ORIENTED_EDGE('',*,*,#463,.F.);
#578=ORIENTED_EDGE('',*,*,#462,.F.);
#579=ORIENTED_EDGE('',*,*,#461,.T.);
#580=ORIENTED_EDGE('',*,*,#464,.F.);
#581=ORIENTED_EDGE('',*,*,#465,.T.);
#582=ORIENTED_EDGE('',*,*,#466,.F.);
#583=ORIENTED_EDGE('',*,*,#465,.F.);
#584=ORIENTED_EDGE('',*,*,#464,.T.);
#585=ORIENTED_EDGE('',*,*,#467,.F.);
#586=ORIENTED_EDGE('',*,*,#468,.T.);
#587=ORIENTED_EDGE('',*,*,#469,.F.);
#588=ORIENTED_EDGE('',*,*,#468,.F.);
#589=ORIENTED_EDGE('',*,*,#467,.T.);
#590=ORIENTED_EDGE('',*,*,#466,.T.);
#591=ORIENTED_EDGE('',*,*,#470,.F.);
#592=ORIENTED_EDGE('',*,*,#471,.T.);
#593=ORIENTED_EDGE('',*,*,#472,.F.);
#594=ORIENTED_EDGE('',*,*,#471,.F.);
#595=ORIENTED_EDGE('',*,*,#470,.T.);
#596=ORIENTED_EDGE('',*,*,#463,.T.);
#597=ORIENTED_EDGE('',*,*,#473,.T.);
#598=ORIENTED_EDGE('',*,*,#469,.T.);
#599=ORIENTED_EDGE('',*,*,#473,.F.);
#600=ORIENTED_EDGE('',*,*,#474,.T.);
#601=ORIENTED_EDGE('',*,*,#475,.F.);
#602=ORIENTED_EDGE('',*,*,#474,.F.);
#603=ORIENTED_EDGE('',*,*,#476,.F.);
#604=ORIENTED_EDGE('',*,*,#477,.T.);
#605=ORIENTED_EDGE('',*,*,#478,.F.);
#606=ORIENTED_EDGE('',*,*,#479,.F.);
#607=ORIENTED_EDGE('',*,*,#480,.F.);
#608=ORIENTED_EDGE('',*,*,#481,.T.);
#609=ORIENTED_EDGE('',*,*,#482,.F.);
#610=ORIENTED_EDGE('',*,*,#477,.F.);
#611=ORIENTED_EDGE('',*,*,#483,.F.);
#612=ORIENTED_EDGE('',*,*,#484,.T.);
#613=ORIENTED_EDGE('',*,*,#485,.F.);
#614=ORIENTED_EDGE('',*,*,#481,.F.);
#615=ORIENTED_EDGE('',*,*,#486,.F.);
#616=ORIENTED_EDGE('',*,*,#487,.T.);
#617=ORIENTED_EDGE('',*,*,#488,.F.);
#618=ORIENTED_EDGE('',*,*,#484,.F.);
#619=ORIENTED_EDGE('',*,*,#489,.F.);
#620=ORIENTED_EDGE('',*,*,#490,.T.);
#621=ORIENTED_EDGE('',*,*,#491,.F.);
#622=ORIENTED_EDGE('',*,*,#487,.F.);
#623=ORIENTED_EDGE('',*,*,#492,.F.);
#624=ORIENTED_EDGE('',*,*,#493,.T.);
#625=ORIENTED_EDGE('',*,*,#494,.F.);
#626=ORIENTED_EDGE('',*,*,#490,.F.);
#627=ORIENTED_EDGE('',*,*,#495,.F.);
#628=ORIENTED_EDGE('',*,*,#496,.T.);
#629=ORIENTED_EDGE('',*,*,#497,.F.);
#630=ORIENTED_EDGE('',*,*,#493,.F.);
#631=ORIENTED_EDGE('',*,*,#498,.F.);
#632=ORIENTED_EDGE('',*,*,#499,.T.);
#633=ORIENTED_EDGE('',*,*,#500,.F.);
#634=ORIENTED_EDGE('',*,*,#496,.F.);
#635=ORIENTED_EDGE('',*,*,#501,.F.);
#636=ORIENTED_EDGE('',*,*,#502,.T.);
#637=ORIENTED_EDGE('',*,*,#503,.F.);
#638=ORIENTED_EDGE('',*,*,#499,.F.);
#639=ORIENTED_EDGE('',*,*,#504,.F.);
#640=ORIENTED_EDGE('',*,*,#505,.T.);
#641=ORIENTED_EDGE('',*,*,#506,.F.);
#642=ORIENTED_EDGE('',*,*,#502,.F.);
#643=ORIENTED_EDGE('',*,*,#507,.F.);
#644=ORIENTED_EDGE('',*,*,#508,.T.);
#645=ORIENTED_EDGE('',*,*,#509,.F.);
#646=ORIENTED_EDGE('',*,*,#505,.F.);
#647=ORIENTED_EDGE('',*,*,#510,.F.);
#648=ORIENTED_EDGE('',*,*,#479,.T.);
#649=ORIENTED_EDGE('',*,*,#511,.F.);
#650=ORIENTED_EDGE('',*,*,#508,.F.);
#651=ORIENTED_EDGE('',*,*,#512,.F.);
#652=ORIENTED_EDGE('',*,*,#513,.T.);
#653=ORIENTED_EDGE('',*,*,#514,.F.);
#654=ORIENTED_EDGE('',*,*,#513,.F.);
#655=ORIENTED_EDGE('',*,*,#512,.T.);
#656=ORIENTED_EDGE('',*,*,#475,.T.);
#657=ORIENTED_EDGE('',*,*,#472,.T.);
#658=ORIENTED_EDGE('',*,*,#478,.T.);
#659=ORIENTED_EDGE('',*,*,#482,.T.);
#660=ORIENTED_EDGE('',*,*,#485,.T.);
#661=ORIENTED_EDGE('',*,*,#488,.T.);
#662=ORIENTED_EDGE('',*,*,#491,.T.);
#663=ORIENTED_EDGE('',*,*,#494,.T.);
#664=ORIENTED_EDGE('',*,*,#497,.T.);
#665=ORIENTED_EDGE('',*,*,#500,.T.);
#666=ORIENTED_EDGE('',*,*,#503,.T.);
#667=ORIENTED_EDGE('',*,*,#506,.T.);
#668=ORIENTED_EDGE('',*,*,#509,.T.);
#669=ORIENTED_EDGE('',*,*,#511,.T.);
#670=ORIENTED_EDGE('',*,*,#515,.F.);
#671=ORIENTED_EDGE('',*,*,#514,.T.);
#672=ORIENTED_EDGE('',*,*,#476,.T.);
#673=ORIENTED_EDGE('',*,*,#510,.T.);
#674=ORIENTED_EDGE('',*,*,#507,.T.);
#675=ORIENTED_EDGE('',*,*,#504,.T.);
#676=ORIENTED_EDGE('',*,*,#501,.T.);
#677=ORIENTED_EDGE('',*,*,#498,.T.);
#678=ORIENTED_EDGE('',*,*,#495,.T.);
#679=ORIENTED_EDGE('',*,*,#492,.T.);
#680=ORIENTED_EDGE('',*,*,#489,.T.);
#681=ORIENTED_EDGE('',*,*,#486,.T.);
#682=ORIENTED_EDGE('',*,*,#483,.T.);
#683=ORIENTED_EDGE('',*,*,#480,.T.);
#684=ORIENTED_EDGE('',*,*,#516,.F.);
#685=ORIENTED_EDGE('',*,*,#517,.F.);
#686=ORIENTED_EDGE('',*,*,#518,.T.);
#687=ORIENTED_EDGE('',*,*,#516,.T.);
#688=ORIENTED_EDGE('',*,*,#518,.F.);
#689=ORIENTED_EDGE('',*,*,#515,.T.);
#690=ORIENTED_EDGE('',*,*,#519,.T.);
#691=ORIENTED_EDGE('',*,*,#520,.F.);
#692=ORIENTED_EDGE('',*,*,#521,.F.);
#693=ORIENTED_EDGE('',*,*,#519,.F.);
#694=ORIENTED_EDGE('',*,*,#521,.T.);
#695=ORIENTED_EDGE('',*,*,#522,.T.);
#696=ORIENTED_EDGE('',*,*,#523,.T.);
#697=ORIENTED_EDGE('',*,*,#524,.T.);
#698=ORIENTED_EDGE('',*,*,#522,.F.);
#699=ORIENTED_EDGE('',*,*,#520,.T.);
#700=ORIENTED_EDGE('',*,*,#524,.F.);
#701=ORIENTED_EDGE('',*,*,#525,.T.);
#702=ORIENTED_EDGE('',*,*,#526,.F.);
#703=ORIENTED_EDGE('',*,*,#527,.F.);
#704=ORIENTED_EDGE('',*,*,#525,.F.);
#705=ORIENTED_EDGE('',*,*,#523,.F.);
#706=ORIENTED_EDGE('',*,*,#527,.T.);
#707=ORIENTED_EDGE('',*,*,#528,.T.);
#708=ORIENTED_EDGE('',*,*,#529,.T.);
#709=ORIENTED_EDGE('',*,*,#528,.F.);
#710=ORIENTED_EDGE('',*,*,#526,.T.);
#711=ORIENTED_EDGE('',*,*,#529,.F.);
#712=ORIENTED_EDGE('',*,*,#517,.T.);
#713=ORIENTED_EDGE('',*,*,#530,.T.);
#714=ORIENTED_EDGE('',*,*,#531,.T.);
#715=ORIENTED_EDGE('',*,*,#530,.F.);
#716=ORIENTED_EDGE('',*,*,#532,.T.);
#717=ORIENTED_EDGE('',*,*,#531,.F.);
#718=ORIENTED_EDGE('',*,*,#532,.F.);
#719=ORIENTED_EDGE('',*,*,#533,.F.);
#720=ORIENTED_EDGE('',*,*,#534,.T.);
#721=ORIENTED_EDGE('',*,*,#535,.F.);
#722=ORIENTED_EDGE('',*,*,#534,.F.);
#723=ORIENTED_EDGE('',*,*,#536,.F.);
#724=ORIENTED_EDGE('',*,*,#537,.T.);
#725=ORIENTED_EDGE('',*,*,#538,.F.);
#726=ORIENTED_EDGE('',*,*,#537,.F.);
#727=ORIENTED_EDGE('',*,*,#538,.T.);
#728=ORIENTED_EDGE('',*,*,#533,.T.);
#729=ORIENTED_EDGE('',*,*,#536,.T.);
#730=ORIENTED_EDGE('',*,*,#535,.T.);
#731=ORIENTED_EDGE('',*,*,#539,.F.);
#732=ORIENTED_EDGE('',*,*,#540,.F.);
#733=ORIENTED_EDGE('',*,*,#541,.F.);
#734=ORIENTED_EDGE('',*,*,#542,.T.);
#735=ORIENTED_EDGE('',*,*,#543,.F.);
#736=ORIENTED_EDGE('',*,*,#544,.F.);
#737=ORIENTED_EDGE('',*,*,#545,.F.);
#738=ORIENTED_EDGE('',*,*,#540,.T.);
#739=ORIENTED_EDGE('',*,*,#546,.F.);
#740=ORIENTED_EDGE('',*,*,#547,.F.);
#741=ORIENTED_EDGE('',*,*,#548,.F.);
#742=ORIENTED_EDGE('',*,*,#544,.T.);
#743=ORIENTED_EDGE('',*,*,#549,.F.);
#744=ORIENTED_EDGE('',*,*,#550,.F.);
#745=ORIENTED_EDGE('',*,*,#551,.F.);
#746=ORIENTED_EDGE('',*,*,#547,.T.);
#747=ORIENTED_EDGE('',*,*,#552,.F.);
#748=ORIENTED_EDGE('',*,*,#553,.F.);
#749=ORIENTED_EDGE('',*,*,#554,.F.);
#750=ORIENTED_EDGE('',*,*,#550,.T.);
#751=ORIENTED_EDGE('',*,*,#555,.F.);
#752=ORIENTED_EDGE('',*,*,#556,.F.);
#753=ORIENTED_EDGE('',*,*,#557,.F.);
#754=ORIENTED_EDGE('',*,*,#553,.T.);
#755=ORIENTED_EDGE('',*,*,#558,.F.);
#756=ORIENTED_EDGE('',*,*,#559,.F.);
#757=ORIENTED_EDGE('',*,*,#560,.F.);
#758=ORIENTED_EDGE('',*,*,#556,.T.);
#759=ORIENTED_EDGE('',*,*,#561,.F.);
#760=ORIENTED_EDGE('',*,*,#562,.F.);
#761=ORIENTED_EDGE('',*,*,#563,.F.);
#762=ORIENTED_EDGE('',*,*,#559,.T.);
#763=ORIENTED_EDGE('',*,*,#564,.F.);
#764=ORIENTED_EDGE('',*,*,#565,.F.);
#765=ORIENTED_EDGE('',*,*,#566,.F.);
#766=ORIENTED_EDGE('',*,*,#562,.T.);
#767=ORIENTED_EDGE('',*,*,#567,.F.);
#768=ORIENTED_EDGE('',*,*,#568,.F.);
#769=ORIENTED_EDGE('',*,*,#569,.F.);
#770=ORIENTED_EDGE('',*,*,#565,.T.);
#771=ORIENTED_EDGE('',*,*,#570,.F.);
#772=ORIENTED_EDGE('',*,*,#571,.F.);
#773=ORIENTED_EDGE('',*,*,#572,.F.);
#774=ORIENTED_EDGE('',*,*,#568,.T.);
#775=ORIENTED_EDGE('',*,*,#573,.F.);
#776=ORIENTED_EDGE('',*,*,#542,.F.);
#777=ORIENTED_EDGE('',*,*,#574,.F.);
#778=ORIENTED_EDGE('',*,*,#571,.T.);
#779=ORIENTED_EDGE('',*,*,#554,.T.);
#780=ORIENTED_EDGE('',*,*,#557,.T.);
#781=ORIENTED_EDGE('',*,*,#560,.T.);
#782=ORIENTED_EDGE('',*,*,#563,.T.);
#783=ORIENTED_EDGE('',*,*,#566,.T.);
#784=ORIENTED_EDGE('',*,*,#569,.T.);
#785=ORIENTED_EDGE('',*,*,#572,.T.);
#786=ORIENTED_EDGE('',*,*,#574,.T.);
#787=ORIENTED_EDGE('',*,*,#541,.T.);
#788=ORIENTED_EDGE('',*,*,#545,.T.);
#789=ORIENTED_EDGE('',*,*,#548,.T.);
#790=ORIENTED_EDGE('',*,*,#551,.T.);
#791=ORIENTED_EDGE('',*,*,#555,.T.);
#792=ORIENTED_EDGE('',*,*,#552,.T.);
#793=ORIENTED_EDGE('',*,*,#549,.T.);
#794=ORIENTED_EDGE('',*,*,#546,.T.);
#795=ORIENTED_EDGE('',*,*,#543,.T.);
#796=ORIENTED_EDGE('',*,*,#539,.T.);
#797=ORIENTED_EDGE('',*,*,#573,.T.);
#798=ORIENTED_EDGE('',*,*,#570,.T.);
#799=ORIENTED_EDGE('',*,*,#567,.T.);
#800=ORIENTED_EDGE('',*,*,#564,.T.);
#801=ORIENTED_EDGE('',*,*,#561,.T.);
#802=ORIENTED_EDGE('',*,*,#558,.T.);
#803=CYLINDRICAL_SURFACE('',#952,0.225);
#804=CYLINDRICAL_SURFACE('',#956,0.225);
#805=CYLINDRICAL_SURFACE('',#960,0.5);
#806=CYLINDRICAL_SURFACE('',#964,0.5);
#807=CYLINDRICAL_SURFACE('',#970,0.75);
#808=CYLINDRICAL_SURFACE('',#984,2.45);
#809=CYLINDRICAL_SURFACE('',#993,2.6);
#810=CYLINDRICAL_SURFACE('',#995,2.6);
#811=CYLINDRICAL_SURFACE('',#1002,3.);
#812=CYLINDRICAL_SURFACE('',#1013,2.6);
#813=CYLINDRICAL_SURFACE('',#1014,0.5);
#814=CYLINDRICAL_SURFACE('',#1017,0.75);
#815=STYLED_ITEM('',(#1555),#872);
#816=STYLED_ITEM('',(#1555),#873);
#817=STYLED_ITEM('',(#1555),#874);
#818=STYLED_ITEM('',(#1555),#875);
#819=STYLED_ITEM('',(#1555),#876);
#820=STYLED_ITEM('',(#1555),#877);
#821=STYLED_ITEM('',(#1555),#878);
#822=STYLED_ITEM('',(#1555),#879);
#823=STYLED_ITEM('',(#1556),#880);
#824=STYLED_ITEM('',(#1557),#881);
#825=STYLED_ITEM('',(#1557),#882);
#826=STYLED_ITEM('',(#1557),#883);
#827=STYLED_ITEM('',(#1557),#884);
#828=STYLED_ITEM('',(#1557),#885);
#829=STYLED_ITEM('',(#1557),#886);
#830=STYLED_ITEM('',(#1557),#887);
#831=STYLED_ITEM('',(#1557),#888);
#832=STYLED_ITEM('',(#1557),#889);
#833=STYLED_ITEM('',(#1557),#890);
#834=STYLED_ITEM('',(#1557),#891);
#835=STYLED_ITEM('',(#1557),#892);
#836=STYLED_ITEM('',(#1557),#893);
#837=STYLED_ITEM('',(#1557),#894);
#838=STYLED_ITEM('',(#1557),#895);
#839=STYLED_ITEM('',(#1556),#896);
#840=STYLED_ITEM('',(#1556),#897);
#841=STYLED_ITEM('',(#1556),#898);
#842=STYLED_ITEM('',(#1558),#899);
#843=STYLED_ITEM('',(#1558),#900);
#844=STYLED_ITEM('',(#1558),#902);
#845=STYLED_ITEM('',(#1558),#903);
#846=STYLED_ITEM('',(#1558),#904);
#847=STYLED_ITEM('',(#1554),#13);
#848=STYLED_ITEM('',(#1559),#905);
#849=STYLED_ITEM('',(#1559),#906);
#850=STYLED_ITEM('',(#1559),#907);
#851=STYLED_ITEM('',(#1554),#14);
#852=STYLED_ITEM('',(#1560),#908);
#853=STYLED_ITEM('',(#1560),#909);
#854=STYLED_ITEM('',(#1560),#910);
#855=STYLED_ITEM('',(#1560),#911);
#856=STYLED_ITEM('',(#1554),#15);
#857=STYLED_ITEM('',(#1561),#912);
#858=STYLED_ITEM('',(#1561),#913);
#859=STYLED_ITEM('',(#1561),#914);
#860=STYLED_ITEM('',(#1561),#915);
#861=STYLED_ITEM('',(#1561),#916);
#862=STYLED_ITEM('',(#1561),#917);
#863=STYLED_ITEM('',(#1561),#918);
#864=STYLED_ITEM('',(#1561),#919);
#865=STYLED_ITEM('',(#1561),#920);
#866=STYLED_ITEM('',(#1561),#921);
#867=STYLED_ITEM('',(#1561),#922);
#868=STYLED_ITEM('',(#1561),#923);
#869=STYLED_ITEM('',(#1561),#924);
#870=STYLED_ITEM('',(#1561),#925);
#871=STYLED_ITEM('',(#1554),#16);
#872=ADVANCED_FACE('',(#69),#803,.T.);
#873=ADVANCED_FACE('',(#70),#29,.F.);
#874=ADVANCED_FACE('',(#71),#804,.T.);
#875=ADVANCED_FACE('',(#72),#30,.F.);
#876=ADVANCED_FACE('',(#73),#805,.T.);
#877=ADVANCED_FACE('',(#74,#19),#31,.F.);
#878=ADVANCED_FACE('',(#75),#806,.T.);
#879=ADVANCED_FACE('',(#76,#20),#32,.F.);
#880=ADVANCED_FACE('',(#77,#21),#33,.F.);
#881=ADVANCED_FACE('',(#78),#807,.F.);
#882=ADVANCED_FACE('',(#79),#34,.F.);
#883=ADVANCED_FACE('',(#80),#35,.F.);
#884=ADVANCED_FACE('',(#81),#36,.F.);
#885=ADVANCED_FACE('',(#82),#37,.F.);
#886=ADVANCED_FACE('',(#83),#38,.F.);
#887=ADVANCED_FACE('',(#84),#39,.F.);
#888=ADVANCED_FACE('',(#85),#40,.F.);
#889=ADVANCED_FACE('',(#86),#41,.F.);
#890=ADVANCED_FACE('',(#87),#42,.F.);
#891=ADVANCED_FACE('',(#88),#43,.F.);
#892=ADVANCED_FACE('',(#89),#44,.F.);
#893=ADVANCED_FACE('',(#90),#45,.F.);
#894=ADVANCED_FACE('',(#91),#808,.T.);
#895=ADVANCED_FACE('',(#92,#22,#23,#24),#46,.F.);
#896=ADVANCED_FACE('',(#93,#25),#47,.F.);
#897=ADVANCED_FACE('',(#94),#48,.F.);
#898=ADVANCED_FACE('',(#95),#49,.T.);
#899=ADVANCED_FACE('',(#96),#809,.F.);
#900=ADVANCED_FACE('',(#97),#810,.F.);
#901=ADVANCED_FACE('',(#98),#17,.T.);
#902=ADVANCED_FACE('',(#99),#811,.T.);
#903=ADVANCED_FACE('',(#100),#18,.T.);
#904=ADVANCED_FACE('',(#101,#26),#50,.T.);
#905=ADVANCED_FACE('',(#102),#51,.T.);
#906=ADVANCED_FACE('',(#103),#52,.F.);
#907=ADVANCED_FACE('',(#104),#812,.T.);
#908=ADVANCED_FACE('',(#105),#813,.F.);
#909=ADVANCED_FACE('',(#106),#814,.T.);
#910=ADVANCED_FACE('',(#107,#27),#53,.T.);
#911=ADVANCED_FACE('',(#108,#28),#54,.F.);
#912=ADVANCED_FACE('',(#109),#55,.T.);
#913=ADVANCED_FACE('',(#110),#56,.T.);
#914=ADVANCED_FACE('',(#111),#57,.T.);
#915=ADVANCED_FACE('',(#112),#58,.T.);
#916=ADVANCED_FACE('',(#113),#59,.T.);
#917=ADVANCED_FACE('',(#114),#60,.T.);
#918=ADVANCED_FACE('',(#115),#61,.T.);
#919=ADVANCED_FACE('',(#116),#62,.T.);
#920=ADVANCED_FACE('',(#117),#63,.T.);
#921=ADVANCED_FACE('',(#118),#64,.T.);
#922=ADVANCED_FACE('',(#119),#65,.T.);
#923=ADVANCED_FACE('',(#120),#66,.T.);
#924=ADVANCED_FACE('',(#121),#67,.T.);
#925=ADVANCED_FACE('',(#122),#68,.F.);
#926=CLOSED_SHELL('',(#872,#873,#874,#875,#876,#877,#878,#879,#880,#881,
#882,#883,#884,#885,#886,#887,#888,#889,#890,#891,#892,#893,#894,#895,#896,
#897,#898,#899,#900,#901,#902,#903,#904));
#927=CLOSED_SHELL('',(#905,#906,#907));
#928=CLOSED_SHELL('',(#908,#909,#910,#911));
#929=CLOSED_SHELL('',(#912,#913,#914,#915,#916,#917,#918,#919,#920,#921,
#922,#923,#924,#925));
#930=DERIVED_UNIT_ELEMENT(#933,1.);
#931=DERIVED_UNIT_ELEMENT(#1540,-3.);
#932=DIMENSIONAL_EXPONENTS(0.,1.,0.,0.,0.,0.,0.);
#933=(
CONVERSION_BASED_UNIT('gram',#935)
MASS_UNIT()
NAMED_UNIT(#932)
);
#934=(
MASS_UNIT()
NAMED_UNIT(*)
SI_UNIT(.KILO.,.GRAM.)
);
#935=MASS_MEASURE_WITH_UNIT(MASS_MEASURE(0.001),#934);
#936=DERIVED_UNIT((#930,#931));
#937=MEASURE_REPRESENTATION_ITEM('density measure',
POSITIVE_RATIO_MEASURE(1.),#936);
#938=PROPERTY_DEFINITION_REPRESENTATION(#943,#940);
#939=PROPERTY_DEFINITION_REPRESENTATION(#944,#941);
#940=REPRESENTATION('material name',(#942),#1537);
#941=REPRESENTATION('density',(#937),#1537);
#942=DESCRIPTIVE_REPRESENTATION_ITEM('Generic','Generic');
#943=PROPERTY_DEFINITION('material property','material name',#1547);
#944=PROPERTY_DEFINITION('material property','density of part',#1547);
#945=DATE_TIME_ROLE('creation_date');
#946=APPLIED_DATE_AND_TIME_ASSIGNMENT(#947,#945,(#1547));
#947=DATE_AND_TIME(#948,#949);
#948=CALENDAR_DATE(2019,16,7);
#949=LOCAL_TIME(0,0,0.,#950);
#950=COORDINATED_UNIVERSAL_TIME_OFFSET(0,0,.BEHIND.);
#951=AXIS2_PLACEMENT_3D('',#1290,#1036,#1037);
#952=AXIS2_PLACEMENT_3D('',#1291,#1038,#1039);
#953=AXIS2_PLACEMENT_3D('',#1293,#1040,#1041);
#954=AXIS2_PLACEMENT_3D('',#1296,#1043,#1044);
#955=AXIS2_PLACEMENT_3D('',#1297,#1045,#1046);
#956=AXIS2_PLACEMENT_3D('',#1298,#1047,#1048);
#957=AXIS2_PLACEMENT_3D('',#1300,#1049,#1050);
#958=AXIS2_PLACEMENT_3D('',#1303,#1052,#1053);
#959=AXIS2_PLACEMENT_3D('',#1304,#1054,#1055);
#960=AXIS2_PLACEMENT_3D('',#1305,#1056,#1057);
#961=AXIS2_PLACEMENT_3D('',#1307,#1058,#1059);
#962=AXIS2_PLACEMENT_3D('',#1310,#1061,#1062);
#963=AXIS2_PLACEMENT_3D('',#1311,#1063,#1064);
#964=AXIS2_PLACEMENT_3D('',#1312,#1065,#1066);
#965=AXIS2_PLACEMENT_3D('',#1314,#1067,#1068);
#966=AXIS2_PLACEMENT_3D('',#1317,#1070,#1071);
#967=AXIS2_PLACEMENT_3D('',#1318,#1072,#1073);
#968=AXIS2_PLACEMENT_3D('',#1319,#1074,#1075);
#969=AXIS2_PLACEMENT_3D('',#1321,#1076,#1077);
#970=AXIS2_PLACEMENT_3D('',#1322,#1078,#1079);
#971=AXIS2_PLACEMENT_3D('',#1325,#1081,#1082);
#972=AXIS2_PLACEMENT_3D('',#1326,#1083,#1084);
#973=AXIS2_PLACEMENT_3D('',#1335,#1089,#1090);
#974=AXIS2_PLACEMENT_3D('',#1341,#1094,#1095);
#975=AXIS2_PLACEMENT_3D('',#1347,#1099,#1100);
#976=AXIS2_PLACEMENT_3D('',#1353,#1104,#1105);
#977=AXIS2_PLACEMENT_3D('',#1359,#1109,#1110);
#978=AXIS2_PLACEMENT_3D('',#1365,#1114,#1115);
#979=AXIS2_PLACEMENT_3D('',#1371,#1119,#1120);
#980=AXIS2_PLACEMENT_3D('',#1377,#1124,#1125);
#981=AXIS2_PLACEMENT_3D('',#1383,#1129,#1130);
#982=AXIS2_PLACEMENT_3D('',#1389,#1134,#1135);
#983=AXIS2_PLACEMENT_3D('',#1395,#1139,#1140);
#984=AXIS2_PLACEMENT_3D('',#1398,#1143,#1144);
#985=AXIS2_PLACEMENT_3D('',#1400,#1145,#1146);
#986=AXIS2_PLACEMENT_3D('',#1403,#1148,#1149);
#987=AXIS2_PLACEMENT_3D('',#1404,#1150,#1151);
#988=AXIS2_PLACEMENT_3D('',#1405,#1152,#1153);
#989=AXIS2_PLACEMENT_3D('',#1407,#1154,#1155);
#990=AXIS2_PLACEMENT_3D('',#1408,#1156,#1157);
#991=AXIS2_PLACEMENT_3D('',#1409,#1158,#1159);
#992=AXIS2_PLACEMENT_3D('',#1411,#1160,#1161);
#993=AXIS2_PLACEMENT_3D('',#1412,#1162,#1163);
#994=AXIS2_PLACEMENT_3D('',#1414,#1164,#1165);
#995=AXIS2_PLACEMENT_3D('',#1416,#1167,#1168);
#996=AXIS2_PLACEMENT_3D('',#1420,#1170,#1171);
#997=AXIS2_PLACEMENT_3D('',#1421,#1172,#1173);
#998=AXIS2_PLACEMENT_3D('',#1422,#1174,#1175);
#999=AXIS2_PLACEMENT_3D('',#1424,#1176,#1177);
#1000=AXIS2_PLACEMENT_3D('',#1426,#1178,#1179);
#1001=AXIS2_PLACEMENT_3D('',#1427,#1180,#1181);
#1002=AXIS2_PLACEMENT_3D('',#1428,#1182,#1183);
#1003=AXIS2_PLACEMENT_3D('',#1432,#1185,#1186);
#1004=AXIS2_PLACEMENT_3D('',#1433,#1187,#1188);
#1005=AXIS2_PLACEMENT_3D('',#1434,#1189,#1190);
#1006=AXIS2_PLACEMENT_3D('',#1436,#1191,#1192);
#1007=AXIS2_PLACEMENT_3D('',#1437,#1193,#1194);
#1008=AXIS2_PLACEMENT_3D('',#1438,#1195,#1196);
#1009=AXIS2_PLACEMENT_3D('',#1439,#1197,#1198);
#1010=AXIS2_PLACEMENT_3D('',#1441,#1199,#1200);
#1011=AXIS2_PLACEMENT_3D('',#1442,#1201,#1202);
#1012=AXIS2_PLACEMENT_3D('',#1444,#1203,#1204);
#1013=AXIS2_PLACEMENT_3D('',#1445,#1205,#1206);
#1014=AXIS2_PLACEMENT_3D('',#1447,#1208,#1209);
#1015=AXIS2_PLACEMENT_3D('',#1449,#1210,#1211);
#1016=AXIS2_PLACEMENT_3D('',#1452,#1213,#1214);
#1017=AXIS2_PLACEMENT_3D('',#1453,#1215,#1216);
#1018=AXIS2_PLACEMENT_3D('',#1455,#1217,#1218);
#1019=AXIS2_PLACEMENT_3D('',#1458,#1220,#1221);
#1020=AXIS2_PLACEMENT_3D('',#1459,#1222,#1223);
#1021=AXIS2_PLACEMENT_3D('',#1460,#1224,#1225);
#1022=AXIS2_PLACEMENT_3D('',#1461,#1226,#1227);
#1023=AXIS2_PLACEMENT_3D('',#1470,#1232,#1233);
#1024=AXIS2_PLACEMENT_3D('',#1476,#1237,#1238);
#1025=AXIS2_PLACEMENT_3D('',#1482,#1242,#1243);
#1026=AXIS2_PLACEMENT_3D('',#1488,#1247,#1248);
#1027=AXIS2_PLACEMENT_3D('',#1494,#1252,#1253);
#1028=AXIS2_PLACEMENT_3D('',#1500,#1257,#1258);
#1029=AXIS2_PLACEMENT_3D('',#1506,#1262,#1263);
#1030=AXIS2_PLACEMENT_3D('',#1512,#1267,#1268);
#1031=AXIS2_PLACEMENT_3D('',#1518,#1272,#1273);
#1032=AXIS2_PLACEMENT_3D('',#1524,#1277,#1278);
#1033=AXIS2_PLACEMENT_3D('',#1530,#1282,#1283);
#1034=AXIS2_PLACEMENT_3D('',#1533,#1286,#1287);
#1035=AXIS2_PLACEMENT_3D('',#1534,#1288,#1289);
#1036=DIRECTION('axis',(0.,0.,1.));
#1037=DIRECTION('refdir',(1.,0.,0.));
#1038=DIRECTION('center_axis',(0.,-1.,0.));
#1039=DIRECTION('ref_axis',(-1.,0.,0.));
#1040=DIRECTION('center_axis',(0.,-1.,0.));
#1041=DIRECTION('ref_axis',(-1.,0.,0.));
#1042=DIRECTION('',(0.,1.,0.));
#1043=DIRECTION('center_axis',(0.,1.,0.));
#1044=DIRECTION('ref_axis',(-1.,0.,0.));
#1045=DIRECTION('center_axis',(0.,1.,0.));
#1046=DIRECTION('ref_axis',(0.,0.,1.));
#1047=DIRECTION('center_axis',(0.,-1.,0.));
#1048=DIRECTION('ref_axis',(-1.,0.,0.));
#1049=DIRECTION('center_axis',(0.,-1.,0.));
#1050=DIRECTION('ref_axis',(-1.,0.,0.));
#1051=DIRECTION('',(0.,1.,0.));
#1052=DIRECTION('center_axis',(0.,1.,0.));
#1053=DIRECTION('ref_axis',(-1.,0.,0.));
#1054=DIRECTION('center_axis',(0.,1.,0.));
#1055=DIRECTION('ref_axis',(0.,0.,1.));
#1056=DIRECTION('center_axis',(0.,-1.,0.));
#1057=DIRECTION('ref_axis',(-1.,0.,0.));
#1058=DIRECTION('center_axis',(0.,-1.,0.));
#1059=DIRECTION('ref_axis',(-1.,0.,0.));
#1060=DIRECTION('',(0.,1.,0.));
#1061=DIRECTION('center_axis',(0.,1.,0.));
#1062=DIRECTION('ref_axis',(-1.,0.,0.));
#1063=DIRECTION('center_axis',(0.,1.,0.));
#1064=DIRECTION('ref_axis',(0.,0.,1.));
#1065=DIRECTION('center_axis',(0.,-1.,0.));
#1066=DIRECTION('ref_axis',(-1.,0.,0.));
#1067=DIRECTION('center_axis',(0.,-1.,0.));
#1068=DIRECTION('ref_axis',(-1.,0.,0.));
#1069=DIRECTION('',(0.,1.,0.));
#1070=DIRECTION('center_axis',(0.,1.,0.));
#1071=DIRECTION('ref_axis',(-1.,0.,0.));
#1072=DIRECTION('center_axis',(0.,1.,0.));
#1073=DIRECTION('ref_axis',(0.,0.,1.));
#1074=DIRECTION('center_axis',(0.,1.,0.));
#1075=DIRECTION('ref_axis',(0.,0.,1.));
#1076=DIRECTION('center_axis',(0.,-1.,0.));
#1077=DIRECTION('ref_axis',(-1.,0.,0.));
#1078=DIRECTION('center_axis',(0.,-1.,0.));
#1079=DIRECTION('ref_axis',(-1.,0.,0.));
#1080=DIRECTION('',(0.,-1.,0.));
#1081=DIRECTION('center_axis',(0.,1.,0.));
#1082=DIRECTION('ref_axis',(-1.,0.,0.));
#1083=DIRECTION('center_axis',(0.,0.,-1.));
#1084=DIRECTION('ref_axis',(1.,0.,0.));
#1085=DIRECTION('',(1.,0.,0.));
#1086=DIRECTION('',(0.,-1.,0.));
#1087=DIRECTION('',(-1.,0.,0.));
#1088=DIRECTION('',(0.,-1.,0.));
#1089=DIRECTION('center_axis',(1.,0.,0.));
#1090=DIRECTION('ref_axis',(0.,0.,1.));
#1091=DIRECTION('',(0.,0.,1.));
#1092=DIRECTION('',(0.,-1.,0.));
#1093=DIRECTION('',(0.,0.,-1.));
#1094=DIRECTION('center_axis',(0.,0.,-1.));
#1095=DIRECTION('ref_axis',(1.,0.,0.));
#1096=DIRECTION('',(1.,0.,0.));
#1097=DIRECTION('',(0.,-1.,0.));
#1098=DIRECTION('',(-1.,0.,0.));
#1099=DIRECTION('center_axis',(-1.,0.,0.));
#1100=DIRECTION('ref_axis',(0.,0.,-1.));
#1101=DIRECTION('',(0.,0.,-1.));
#1102=DIRECTION('',(0.,-1.,0.));
#1103=DIRECTION('',(0.,0.,1.));
#1104=DIRECTION('center_axis',(0.,0.,-1.));
#1105=DIRECTION('ref_axis',(1.,0.,0.));
#1106=DIRECTION('',(1.,0.,0.));
#1107=DIRECTION('',(0.,-1.,0.));
#1108=DIRECTION('',(-1.,0.,0.));
#1109=DIRECTION('center_axis',(-1.,0.,0.));
#1110=DIRECTION('ref_axis',(0.,0.,-1.));
#1111=DIRECTION('',(0.,0.,-1.));
#1112=DIRECTION('',(0.,-1.,0.));
#1113=DIRECTION('',(0.,0.,1.));
#1114=DIRECTION('center_axis',(0.,0.,1.));
#1115=DIRECTION('ref_axis',(-1.,0.,0.));
#1116=DIRECTION('',(-1.,0.,0.));
#1117=DIRECTION('',(0.,-1.,0.));
#1118=DIRECTION('',(1.,0.,0.));
#1119=DIRECTION('center_axis',(-1.,0.,2.77555756156289E-16));
#1120=DIRECTION('ref_axis',(-2.77555756156289E-16,0.,-1.));
#1121=DIRECTION('',(-2.77555756156289E-16,0.,-1.));
#1122=DIRECTION('',(0.,-1.,0.));
#1123=DIRECTION('',(2.77555756156289E-16,0.,1.));
#1124=DIRECTION('center_axis',(0.,0.,1.));
#1125=DIRECTION('ref_axis',(-1.,0.,0.));
#1126=DIRECTION('',(-1.,0.,0.));
#1127=DIRECTION('',(0.,-1.,0.));
#1128=DIRECTION('',(1.,0.,0.));
#1129=DIRECTION('center_axis',(1.,0.,0.));
#1130=DIRECTION('ref_axis',(0.,0.,1.));
#1131=DIRECTION('',(0.,0.,1.));
#1132=DIRECTION('',(0.,-1.,0.));
#1133=DIRECTION('',(0.,0.,-1.));
#1134=DIRECTION('center_axis',(2.77555756156289E-16,0.,1.));
#1135=DIRECTION('ref_axis',(-1.,0.,2.77555756156289E-16));
#1136=DIRECTION('',(-1.,0.,2.77555756156289E-16));
#1137=DIRECTION('',(0.,-1.,0.));
#1138=DIRECTION('',(1.,0.,-2.77555756156289E-16));
#1139=DIRECTION('center_axis',(1.,0.,0.));
#1140=DIRECTION('ref_axis',(0.,0.,1.));
#1141=DIRECTION('',(0.,0.,1.));
#1142=DIRECTION('',(0.,0.,-1.));
#1143=DIRECTION('center_axis',(0.,-1.,0.));
#1144=DIRECTION('ref_axis',(-1.,0.,0.));
#1145=DIRECTION('center_axis',(0.,-1.,0.));
#1146=DIRECTION('ref_axis',(-1.,0.,0.));
#1147=DIRECTION('',(0.,1.,0.));
#1148=DIRECTION('center_axis',(0.,1.,0.));
#1149=DIRECTION('ref_axis',(-1.,0.,0.));
#1150=DIRECTION('center_axis',(0.,1.,0.));
#1151=DIRECTION('ref_axis',(0.,0.,1.));
#1152=DIRECTION('center_axis',(0.,1.,0.));
#1153=DIRECTION('ref_axis',(0.,0.,1.));
#1154=DIRECTION('center_axis',(0.,1.,0.));
#1155=DIRECTION('ref_axis',(1.,0.,0.));
#1156=DIRECTION('center_axis',(0.,1.,0.));
#1157=DIRECTION('ref_axis',(0.,0.,1.));
#1158=DIRECTION('center_axis',(0.,1.,0.));
#1159=DIRECTION('ref_axis',(0.,0.,1.));
#1160=DIRECTION('center_axis',(0.,-1.,0.));
#1161=DIRECTION('ref_axis',(1.,0.,0.));
#1162=DIRECTION('center_axis',(0.,-1.,0.));
#1163=DIRECTION('ref_axis',(1.,0.,0.));
#1164=DIRECTION('center_axis',(0.,-1.,0.));
#1165=DIRECTION('ref_axis',(1.,0.,0.));
#1166=DIRECTION('',(0.,-1.,0.));
#1167=DIRECTION('center_axis',(0.,-1.,0.));
#1168=DIRECTION('ref_axis',(1.,0.,0.));
#1169=DIRECTION('',(0.,-1.,0.));
#1170=DIRECTION('center_axis',(0.,1.,0.));
#1171=DIRECTION('ref_axis',(1.,0.,0.));
#1172=DIRECTION('center_axis',(0.,1.,0.));
#1173=DIRECTION('ref_axis',(1.,0.,0.));
#1174=DIRECTION('center_axis',(0.,-1.,0.));
#1175=DIRECTION('ref_axis',(0.,0.,-1.));
#1176=DIRECTION('center_axis',(-1.,0.,-1.22464679914735E-16));
#1177=DIRECTION('ref_axis',(-1.22464679914735E-16,0.,1.));
#1178=DIRECTION('center_axis',(0.,-1.,0.));
#1179=DIRECTION('ref_axis',(1.,0.,0.));
#1180=DIRECTION('center_axis',(0.,-1.,0.));
#1181=DIRECTION('ref_axis',(1.,0.,0.));
#1182=DIRECTION('center_axis',(0.,-1.,0.));
#1183=DIRECTION('ref_axis',(1.,0.,0.));
#1184=DIRECTION('',(0.,1.,0.));
#1185=DIRECTION('center_axis',(0.,1.,0.));
#1186=DIRECTION('ref_axis',(1.,0.,0.));
#1187=DIRECTION('center_axis',(0.,1.,0.));
#1188=DIRECTION('ref_axis',(1.,0.,0.));
#1189=DIRECTION('center_axis',(0.,-1.,0.));
#1190=DIRECTION('ref_axis',(0.,0.,-1.));
#1191=DIRECTION('center_axis',(-1.,0.,-1.22464679914735E-16));
#1192=DIRECTION('ref_axis',(-1.22464679914735E-16,0.,1.));
#1193=DIRECTION('center_axis',(0.,-1.,0.));
#1194=DIRECTION('ref_axis',(1.,0.,0.));
#1195=DIRECTION('center_axis',(0.,1.,0.));
#1196=DIRECTION('ref_axis',(0.,0.,1.));
#1197=DIRECTION('center_axis',(0.,1.,0.));
#1198=DIRECTION('ref_axis',(0.,0.,1.));
#1199=DIRECTION('center_axis',(0.,1.,0.));
#1200=DIRECTION('ref_axis',(1.,0.,0.));
#1201=DIRECTION('center_axis',(0.,1.,0.));
#1202=DIRECTION('ref_axis',(0.,0.,1.));
#1203=DIRECTION('center_axis',(0.,-1.,0.));
#1204=DIRECTION('ref_axis',(1.,0.,0.));
#1205=DIRECTION('center_axis',(0.,1.,0.));
#1206=DIRECTION('ref_axis',(1.,0.,0.));
#1207=DIRECTION('',(0.,-1.,0.));
#1208=DIRECTION('center_axis',(0.,-1.,0.));
#1209=DIRECTION('ref_axis',(-1.,0.,0.));
#1210=DIRECTION('center_axis',(0.,-1.,0.));
#1211=DIRECTION('ref_axis',(-1.,0.,0.));
#1212=DIRECTION('',(0.,-1.,0.));
#1213=DIRECTION('center_axis',(0.,1.,0.));
#1214=DIRECTION('ref_axis',(-1.,0.,0.));
#1215=DIRECTION('center_axis',(0.,-1.,0.));
#1216=DIRECTION('ref_axis',(-1.,0.,0.));
#1217=DIRECTION('center_axis',(0.,-1.,0.));
#1218=DIRECTION('ref_axis',(-1.,0.,0.));
#1219=DIRECTION('',(0.,1.,0.));
#1220=DIRECTION('center_axis',(0.,1.,0.));
#1221=DIRECTION('ref_axis',(-1.,0.,0.));
#1222=DIRECTION('center_axis',(0.,1.,0.));
#1223=DIRECTION('ref_axis',(0.,0.,1.));
#1224=DIRECTION('center_axis',(0.,1.,0.));
#1225=DIRECTION('ref_axis',(0.,0.,1.));
#1226=DIRECTION('center_axis',(-1.,0.,2.77555756156289E-16));
#1227=DIRECTION('ref_axis',(-2.77555756156289E-16,0.,-1.));
#1228=DIRECTION('',(-2.77555756156289E-16,0.,-1.));
#1229=DIRECTION('',(0.,-1.,0.));
#1230=DIRECTION('',(2.77555756156289E-16,0.,1.));
#1231=DIRECTION('',(0.,-1.,0.));
#1232=DIRECTION('center_axis',(0.,0.,1.));
#1233=DIRECTION('ref_axis',(-1.,0.,0.));
#1234=DIRECTION('',(-1.,0.,0.));
#1235=DIRECTION('',(0.,-1.,0.));
#1236=DIRECTION('',(1.,0.,0.));
#1237=DIRECTION('center_axis',(1.,0.,0.));
#1238=DIRECTION('ref_axis',(0.,0.,1.));
#1239=DIRECTION('',(0.,0.,1.));
#1240=DIRECTION('',(0.,-1.,0.));
#1241=DIRECTION('',(0.,0.,-1.));
#1242=DIRECTION('center_axis',(2.77555756156289E-16,0.,1.));
#1243=DIRECTION('ref_axis',(-1.,0.,2.77555756156289E-16));
#1244=DIRECTION('',(-1.,0.,2.77555756156289E-16));
#1245=DIRECTION('',(0.,-1.,0.));
#1246=DIRECTION('',(1.,0.,-2.77555756156289E-16));
#1247=DIRECTION('center_axis',(1.,0.,0.));
#1248=DIRECTION('ref_axis',(0.,0.,1.));
#1249=DIRECTION('',(0.,0.,1.));
#1250=DIRECTION('',(0.,-1.,0.));
#1251=DIRECTION('',(0.,0.,-1.));
#1252=DIRECTION('center_axis',(0.,0.,-1.));
#1253=DIRECTION('ref_axis',(1.,0.,0.));
#1254=DIRECTION('',(1.,0.,0.));
#1255=DIRECTION('',(0.,-1.,0.));
#1256=DIRECTION('',(-1.,0.,0.));
#1257=DIRECTION('center_axis',(1.,0.,0.));
#1258=DIRECTION('ref_axis',(0.,0.,1.));
#1259=DIRECTION('',(0.,0.,1.));
#1260=DIRECTION('',(0.,-1.,0.));
#1261=DIRECTION('',(0.,0.,-1.));
#1262=DIRECTION('center_axis',(0.,0.,-1.));
#1263=DIRECTION('ref_axis',(1.,0.,0.));
#1264=DIRECTION('',(1.,0.,0.));
#1265=DIRECTION('',(0.,-1.,0.));
#1266=DIRECTION('',(-1.,0.,0.));
#1267=DIRECTION('center_axis',(-1.,0.,0.));
#1268=DIRECTION('ref_axis',(0.,0.,-1.));
#1269=DIRECTION('',(0.,0.,-1.));
#1270=DIRECTION('',(0.,-1.,0.));
#1271=DIRECTION('',(0.,0.,1.));
#1272=DIRECTION('center_axis',(0.,0.,-1.));
#1273=DIRECTION('ref_axis',(1.,0.,0.));
#1274=DIRECTION('',(1.,0.,0.));
#1275=DIRECTION('',(0.,-1.,0.));
#1276=DIRECTION('',(-1.,0.,0.));
#1277=DIRECTION('center_axis',(-1.,0.,0.));
#1278=DIRECTION('ref_axis',(0.,0.,-1.));
#1279=DIRECTION('',(0.,0.,-1.));
#1280=DIRECTION('',(0.,-1.,0.));
#1281=DIRECTION('',(0.,0.,1.));
#1282=DIRECTION('center_axis',(0.,0.,1.));
#1283=DIRECTION('ref_axis',(-1.,0.,0.));
#1284=DIRECTION('',(-1.,0.,0.));
#1285=DIRECTION('',(1.,0.,0.));
#1286=DIRECTION('center_axis',(0.,1.,0.));
#1287=DIRECTION('ref_axis',(0.,0.,1.));
#1288=DIRECTION('center_axis',(0.,1.,0.));
#1289=DIRECTION('ref_axis',(0.,0.,1.));
#1290=CARTESIAN_POINT('',(0.,0.,0.));
#1291=CARTESIAN_POINT('Origin',(1.,-4.75,-0.95));
#1292=CARTESIAN_POINT('',(1.225,-7.8,-0.95));
#1293=CARTESIAN_POINT('Origin',(1.,-7.8,-0.95));
#1294=CARTESIAN_POINT('',(1.225,-4.9,-0.95));
#1295=CARTESIAN_POINT('',(1.225,-4.75,-0.95));
#1296=CARTESIAN_POINT('Origin',(1.,-4.9,-0.95));
#1297=CARTESIAN_POINT('Origin',(1.,-7.8,-0.95));
#1298=CARTESIAN_POINT('Origin',(1.,-4.75,0.95));
#1299=CARTESIAN_POINT('',(1.225,-7.8,0.95));
#1300=CARTESIAN_POINT('Origin',(1.,-7.8,0.95));
#1301=CARTESIAN_POINT('',(1.225,-4.9,0.95));
#1302=CARTESIAN_POINT('',(1.225,-4.75,0.95));
#1303=CARTESIAN_POINT('Origin',(1.,-4.9,0.95));
#1304=CARTESIAN_POINT('Origin',(1.,-7.8,0.95));
#1305=CARTESIAN_POINT('Origin',(1.,-4.75,0.95));
#1306=CARTESIAN_POINT('',(1.5,-4.9,0.95));
#1307=CARTESIAN_POINT('Origin',(1.,-4.9,0.95));
#1308=CARTESIAN_POINT('',(1.5,-4.75,0.95));
#1309=CARTESIAN_POINT('',(1.5,-4.75,0.95));
#1310=CARTESIAN_POINT('Origin',(1.,-4.75,0.95));
#1311=CARTESIAN_POINT('Origin',(1.,-4.9,0.95));
#1312=CARTESIAN_POINT('Origin',(1.,-4.75,-0.95));
#1313=CARTESIAN_POINT('',(1.5,-4.9,-0.95));
#1314=CARTESIAN_POINT('Origin',(1.,-4.9,-0.95));
#1315=CARTESIAN_POINT('',(1.5,-4.76,-0.95));
#1316=CARTESIAN_POINT('',(1.5,-4.75,-0.95));
#1317=CARTESIAN_POINT('Origin',(1.,-4.76,-0.95));
#1318=CARTESIAN_POINT('Origin',(1.,-4.9,-0.95));
#1319=CARTESIAN_POINT('Origin',(-1.15494192236747E-16,-4.75,0.));
#1320=CARTESIAN_POINT('',(1.75,-4.75,0.95));
#1321=CARTESIAN_POINT('Origin',(1.,-4.75,0.95));
#1322=CARTESIAN_POINT('Origin',(1.,-4.75,0.95));
#1323=CARTESIAN_POINT('',(1.75,-4.76,0.95));
#1324=CARTESIAN_POINT('',(1.75,-4.75,0.95));
#1325=CARTESIAN_POINT('Origin',(1.,-4.76,0.95));
#1326=CARTESIAN_POINT('Origin',(-0.75,-4.75,0.825));
#1327=CARTESIAN_POINT('',(-0.75,-4.75,0.825));
#1328=CARTESIAN_POINT('',(-0.25,-4.75,0.825));
#1329=CARTESIAN_POINT('',(-0.375,-4.75,0.825));
#1330=CARTESIAN_POINT('',(-0.75,-4.76,0.825));
#1331=CARTESIAN_POINT('',(-0.75,-4.75,0.825));
#1332=CARTESIAN_POINT('',(-0.25,-4.76,0.825));
#1333=CARTESIAN_POINT('',(-0.375,-4.76,0.825));
#1334=CARTESIAN_POINT('',(-0.25,-4.75,0.825));
#1335=CARTESIAN_POINT('Origin',(-0.75,-4.75,0.325));
#1336=CARTESIAN_POINT('',(-0.75,-4.75,0.325));
#1337=CARTESIAN_POINT('',(-0.75,-4.75,0.1625));
#1338=CARTESIAN_POINT('',(-0.75,-4.76,0.325));
#1339=CARTESIAN_POINT('',(-0.75,-4.75,0.325));
#1340=CARTESIAN_POINT('',(-0.75,-4.76,0.1625));
#1341=CARTESIAN_POINT('Origin',(-1.,-4.75,0.325));
#1342=CARTESIAN_POINT('',(-1.,-4.75,0.325));
#1343=CARTESIAN_POINT('',(-0.5,-4.75,0.325));
#1344=CARTESIAN_POINT('',(-1.,-4.76,0.325));
#1345=CARTESIAN_POINT('',(-1.,-4.75,0.325));
#1346=CARTESIAN_POINT('',(-0.5,-4.76,0.325));
#1347=CARTESIAN_POINT('Origin',(-1.,-4.75,0.825));
#1348=CARTESIAN_POINT('',(-1.,-4.75,0.825));
#1349=CARTESIAN_POINT('',(-1.,-4.75,0.4125));
#1350=CARTESIAN_POINT('',(-1.,-4.76,0.825));
#1351=CARTESIAN_POINT('',(-1.,-4.75,0.825));
#1352=CARTESIAN_POINT('',(-1.,-4.76,0.4125));
#1353=CARTESIAN_POINT('Origin',(-1.5,-4.75,0.825));
#1354=CARTESIAN_POINT('',(-1.5,-4.75,0.825));
#1355=CARTESIAN_POINT('',(-0.75,-4.75,0.825));
#1356=CARTESIAN_POINT('',(-1.5,-4.76,0.825));
#1357=CARTESIAN_POINT('',(-1.5,-4.75,0.825));
#1358=CARTESIAN_POINT('',(-0.75,-4.76,0.825));
#1359=CARTESIAN_POINT('Origin',(-1.5,-4.75,1.075));
#1360=CARTESIAN_POINT('',(-1.5,-4.75,1.075));
#1361=CARTESIAN_POINT('',(-1.5,-4.75,0.5375));
#1362=CARTESIAN_POINT('',(-1.5,-4.76,1.075));
#1363=CARTESIAN_POINT('',(-1.5,-4.75,1.075));
#1364=CARTESIAN_POINT('',(-1.5,-4.76,0.5375));
#1365=CARTESIAN_POINT('Origin',(-1.,-4.75,1.075));
#1366=CARTESIAN_POINT('',(-1.,-4.75,1.075));
#1367=CARTESIAN_POINT('',(-0.5,-4.75,1.075));
#1368=CARTESIAN_POINT('',(-1.,-4.76,1.075));
#1369=CARTESIAN_POINT('',(-1.,-4.75,1.075));
#1370=CARTESIAN_POINT('',(-0.5,-4.76,1.075));
#1371=CARTESIAN_POINT('Origin',(-1.,-4.75,1.575));
#1372=CARTESIAN_POINT('',(-1.,-4.75,1.575));
#1373=CARTESIAN_POINT('',(-1.,-4.75,0.7875));
#1374=CARTESIAN_POINT('',(-1.,-4.76,1.575));
#1375=CARTESIAN_POINT('',(-1.,-4.75,1.575));
#1376=CARTESIAN_POINT('',(-1.,-4.76,0.7875));
#1377=CARTESIAN_POINT('Origin',(-0.75,-4.75,1.575));
#1378=CARTESIAN_POINT('',(-0.75,-4.75,1.575));
#1379=CARTESIAN_POINT('',(-0.375,-4.75,1.575));
#1380=CARTESIAN_POINT('',(-0.75,-4.76,1.575));
#1381=CARTESIAN_POINT('',(-0.75,-4.75,1.575));
#1382=CARTESIAN_POINT('',(-0.375,-4.76,1.575));
#1383=CARTESIAN_POINT('Origin',(-0.75,-4.75,1.075));
#1384=CARTESIAN_POINT('',(-0.75,-4.75,1.075));
#1385=CARTESIAN_POINT('',(-0.75,-4.75,0.5375));
#1386=CARTESIAN_POINT('',(-0.75,-4.76,1.075));
#1387=CARTESIAN_POINT('',(-0.75,-4.75,1.075));
#1388=CARTESIAN_POINT('',(-0.75,-4.76,0.5375));
#1389=CARTESIAN_POINT('Origin',(-0.25,-4.75,1.075));
#1390=CARTESIAN_POINT('',(-0.25,-4.75,1.075));
#1391=CARTESIAN_POINT('',(-0.125,-4.75,1.075));
#1392=CARTESIAN_POINT('',(-0.25,-4.76,1.075));
#1393=CARTESIAN_POINT('',(-0.25,-4.75,1.075));
#1394=CARTESIAN_POINT('',(-0.125,-4.76,1.075));
#1395=CARTESIAN_POINT('Origin',(-0.25,-4.75,0.825));
#1396=CARTESIAN_POINT('',(-0.25,-4.75,0.4125));
#1397=CARTESIAN_POINT('',(-0.25,-4.76,0.4125));
#1398=CARTESIAN_POINT('Origin',(0.,-4.75,0.));
#1399=CARTESIAN_POINT('',(2.45,-4.76,3.00038465791102E-16));
#1400=CARTESIAN_POINT('Origin',(0.,-4.76,0.));
#1401=CARTESIAN_POINT('',(2.45,-4.75,3.00038465791102E-16));
#1402=CARTESIAN_POINT('',(2.45,-4.75,3.00038465791102E-16));
#1403=CARTESIAN_POINT('Origin',(0.,-4.75,0.));
#1404=CARTESIAN_POINT('Origin',(-2.13816645044693E-16,-4.76,-4.72033598905254E-17));
#1405=CARTESIAN_POINT('Origin',(-1.15494192236747E-16,-4.75,0.));
#1406=CARTESIAN_POINT('',(-2.6,-4.75,-3.18408167778312E-16));
#1407=CARTESIAN_POINT('Origin',(0.,-4.75,0.));
#1408=CARTESIAN_POINT('Origin',(-1.15494192236747E-16,-4.75,0.));
#1409=CARTESIAN_POINT('Origin',(-1.15494192236747E-16,-2.75,0.));
#1410=CARTESIAN_POINT('',(-2.6,-2.75,-3.18408167778312E-16));
#1411=CARTESIAN_POINT('Origin',(0.,-2.75,0.));
#1412=CARTESIAN_POINT('Origin',(0.,0.,0.));
#1413=CARTESIAN_POINT('',(-2.6,0.,3.18408167778312E-16));
#1414=CARTESIAN_POINT('Origin',(0.,0.,0.));
#1415=CARTESIAN_POINT('',(-2.6,0.,-3.18408167778312E-16));
#1416=CARTESIAN_POINT('Origin',(0.,0.,0.));
#1417=CARTESIAN_POINT('',(-2.6,-4.8,3.18408167778312E-16));
#1418=CARTESIAN_POINT('',(-2.6,0.,-3.18408167778312E-16));
#1419=CARTESIAN_POINT('',(-3.18408167778312E-16,-4.8,2.6));
#1420=CARTESIAN_POINT('Origin',(0.,-4.8,0.));
#1421=CARTESIAN_POINT('Origin',(0.,-4.8,0.));
#1422=CARTESIAN_POINT('Origin',(0.,-4.8,0.));
#1423=CARTESIAN_POINT('',(-3.67394039744206E-16,-4.8,3.));
#1424=CARTESIAN_POINT('Origin',(-3.42901103761259E-16,-4.8,2.8));
#1425=CARTESIAN_POINT('',(-3.,-4.8,-3.67394039744206E-16));
#1426=CARTESIAN_POINT('Origin',(0.,-4.8,0.));
#1427=CARTESIAN_POINT('Origin',(0.,-4.8,0.));
#1428=CARTESIAN_POINT('Origin',(0.,0.,0.));
#1429=CARTESIAN_POINT('',(-3.,-0.25,3.67394039744206E-16));
#1430=CARTESIAN_POINT('',(-3.,0.,-3.67394039744206E-16));
#1431=CARTESIAN_POINT('',(-3.67394039744206E-16,-0.25,3.));
#1432=CARTESIAN_POINT('Origin',(0.,-0.25,0.));
#1433=CARTESIAN_POINT('Origin',(0.,-0.25,0.));
#1434=CARTESIAN_POINT('Origin',(0.,-0.25,0.));
#1435=CARTESIAN_POINT('',(-3.36777869765522E-16,0.,2.75));
#1436=CARTESIAN_POINT('Origin',(-3.36777869765522E-16,-0.25,2.75));
#1437=CARTESIAN_POINT('Origin',(0.,0.,0.));
#1438=CARTESIAN_POINT('Origin',(3.39011454596783E-16,0.,7.70988211545247E-17));
#1439=CARTESIAN_POINT('Origin',(1.15494192236747E-16,0.2,0.));
#1440=CARTESIAN_POINT('',(-2.6,0.2,3.18408167778312E-16));
#1441=CARTESIAN_POINT('Origin',(0.,0.2,0.));
#1442=CARTESIAN_POINT('Origin',(1.15494192236747E-16,0.,0.));
#1443=CARTESIAN_POINT('',(-2.6,0.,3.18408167778312E-16));
#1444=CARTESIAN_POINT('Origin',(0.,0.,0.));
#1445=CARTESIAN_POINT('Origin',(0.,0.,0.));
#1446=CARTESIAN_POINT('',(-2.6,0.,3.18408167778312E-16));
#1447=CARTESIAN_POINT('Origin',(1.,-4.75,0.95));
#1448=CARTESIAN_POINT('',(1.5,-4.75,0.95));
#1449=CARTESIAN_POINT('Origin',(1.,-4.75,0.95));
#1450=CARTESIAN_POINT('',(1.5,-4.76,0.95));
#1451=CARTESIAN_POINT('',(1.5,-4.75,0.95));
#1452=CARTESIAN_POINT('Origin',(1.,-4.76,0.95));
#1453=CARTESIAN_POINT('Origin',(1.,-4.75,0.95));
#1454=CARTESIAN_POINT('',(1.75,-4.76,0.95));
#1455=CARTESIAN_POINT('Origin',(1.,-4.76,0.95));
#1456=CARTESIAN_POINT('',(1.75,-4.75,0.95));
#1457=CARTESIAN_POINT('',(1.75,-4.75,0.95));
#1458=CARTESIAN_POINT('Origin',(1.,-4.75,0.95));
#1459=CARTESIAN_POINT('Origin',(1.,-4.75,0.95));
#1460=CARTESIAN_POINT('Origin',(1.,-4.76,0.95));
#1461=CARTESIAN_POINT('Origin',(-1.,-4.75,1.575));
#1462=CARTESIAN_POINT('',(-1.,-4.76,1.575));
#1463=CARTESIAN_POINT('',(-1.,-4.76,1.075));
#1464=CARTESIAN_POINT('',(-1.,-4.76,1.2625));
#1465=CARTESIAN_POINT('',(-1.,-4.75,1.575));
#1466=CARTESIAN_POINT('',(-1.,-4.75,1.575));
#1467=CARTESIAN_POINT('',(-1.,-4.75,1.075));
#1468=CARTESIAN_POINT('',(-1.,-4.75,1.075));
#1469=CARTESIAN_POINT('',(-1.,-4.75,1.075));
#1470=CARTESIAN_POINT('Origin',(-0.75,-4.75,1.575));
#1471=CARTESIAN_POINT('',(-0.75,-4.76,1.575));
#1472=CARTESIAN_POINT('',(-0.8125,-4.76,1.575));
#1473=CARTESIAN_POINT('',(-0.75,-4.75,1.575));
#1474=CARTESIAN_POINT('',(-0.75,-4.75,1.575));
#1475=CARTESIAN_POINT('',(-1.,-4.75,1.575));
#1476=CARTESIAN_POINT('Origin',(-0.75,-4.75,1.075));
#1477=CARTESIAN_POINT('',(-0.75,-4.76,1.075));
#1478=CARTESIAN_POINT('',(-0.75,-4.76,1.0125));
#1479=CARTESIAN_POINT('',(-0.75,-4.75,1.075));
#1480=CARTESIAN_POINT('',(-0.75,-4.75,1.075));
#1481=CARTESIAN_POINT('',(-0.75,-4.75,1.575));
#1482=CARTESIAN_POINT('Origin',(-0.25,-4.75,1.075));
#1483=CARTESIAN_POINT('',(-0.25,-4.76,1.075));
#1484=CARTESIAN_POINT('',(-0.5625,-4.76,1.075));
#1485=CARTESIAN_POINT('',(-0.25,-4.75,1.075));
#1486=CARTESIAN_POINT('',(-0.25,-4.75,1.075));
#1487=CARTESIAN_POINT('',(-0.75,-4.75,1.075));
#1488=CARTESIAN_POINT('Origin',(-0.25,-4.75,0.825));
#1489=CARTESIAN_POINT('',(-0.25,-4.76,0.825));
#1490=CARTESIAN_POINT('',(-0.25,-4.76,0.8875));
#1491=CARTESIAN_POINT('',(-0.25,-4.75,0.825));
#1492=CARTESIAN_POINT('',(-0.25,-4.75,0.825));
#1493=CARTESIAN_POINT('',(-0.25,-4.75,0.95));
#1494=CARTESIAN_POINT('Origin',(-0.75,-4.75,0.825));
#1495=CARTESIAN_POINT('',(-0.75,-4.76,0.825));
#1496=CARTESIAN_POINT('',(-0.8125,-4.76,0.825));
#1497=CARTESIAN_POINT('',(-0.75,-4.75,0.825));
#1498=CARTESIAN_POINT('',(-0.75,-4.75,0.825));
#1499=CARTESIAN_POINT('',(-0.25,-4.75,0.825));
#1500=CARTESIAN_POINT('Origin',(-0.75,-4.75,0.325));
#1501=CARTESIAN_POINT('',(-0.75,-4.76,0.325));
#1502=CARTESIAN_POINT('',(-0.75,-4.76,0.6375));
#1503=CARTESIAN_POINT('',(-0.75,-4.75,0.325));
#1504=CARTESIAN_POINT('',(-0.75,-4.75,0.325));
#1505=CARTESIAN_POINT('',(-0.75,-4.75,0.825));
#1506=CARTESIAN_POINT('Origin',(-1.,-4.75,0.325));
#1507=CARTESIAN_POINT('',(-1.,-4.76,0.325));
#1508=CARTESIAN_POINT('',(-0.9375,-4.76,0.325));
#1509=CARTESIAN_POINT('',(-1.,-4.75,0.325));
#1510=CARTESIAN_POINT('',(-1.,-4.75,0.325));
#1511=CARTESIAN_POINT('',(-0.75,-4.75,0.325));
#1512=CARTESIAN_POINT('Origin',(-1.,-4.75,0.825));
#1513=CARTESIAN_POINT('',(-1.,-4.76,0.825));
#1514=CARTESIAN_POINT('',(-1.,-4.76,0.8875));
#1515=CARTESIAN_POINT('',(-1.,-4.75,0.825));
#1516=CARTESIAN_POINT('',(-1.,-4.75,0.825));
#1517=CARTESIAN_POINT('',(-1.,-4.75,0.325));
#1518=CARTESIAN_POINT('Origin',(-1.5,-4.75,0.825));
#1519=CARTESIAN_POINT('',(-1.5,-4.76,0.825));
#1520=CARTESIAN_POINT('',(-1.1875,-4.76,0.825));
#1521=CARTESIAN_POINT('',(-1.5,-4.75,0.825));
#1522=CARTESIAN_POINT('',(-1.5,-4.75,0.825));
#1523=CARTESIAN_POINT('',(-1.,-4.75,0.825));
#1524=CARTESIAN_POINT('Origin',(-1.5,-4.75,1.075));
#1525=CARTESIAN_POINT('',(-1.5,-4.76,1.075));
#1526=CARTESIAN_POINT('',(-1.5,-4.76,1.0125));
#1527=CARTESIAN_POINT('',(-1.5,-4.75,1.075));
#1528=CARTESIAN_POINT('',(-1.5,-4.75,1.075));
#1529=CARTESIAN_POINT('',(-1.5,-4.75,0.825));
#1530=CARTESIAN_POINT('Origin',(-1.,-4.75,1.075));
#1531=CARTESIAN_POINT('',(-0.9375,-4.76,1.075));
#1532=CARTESIAN_POINT('',(-1.5,-4.75,1.075));
#1533=CARTESIAN_POINT('Origin',(-0.875,-4.75,0.95));
#1534=CARTESIAN_POINT('Origin',(-0.875,-4.76,0.95));
#1535=UNCERTAINTY_MEASURE_WITH_UNIT(LENGTH_MEASURE(0.01),#1539,
'DISTANCE_ACCURACY_VALUE',
'Maximum model space distance between geometric entities at asserted c
onnectivities');
#1536=UNCERTAINTY_MEASURE_WITH_UNIT(LENGTH_MEASURE(0.01),#1539,
'DISTANCE_ACCURACY_VALUE',
'Maximum model space distance between geometric entities at asserted c
onnectivities');
#1537=(
GEOMETRIC_REPRESENTATION_CONTEXT(3)
GLOBAL_UNCERTAINTY_ASSIGNED_CONTEXT((#1535))
GLOBAL_UNIT_ASSIGNED_CONTEXT((#1539,#1541,#1542))
REPRESENTATION_CONTEXT('','3D')
);
#1538=(
GEOMETRIC_REPRESENTATION_CONTEXT(3)
GLOBAL_UNCERTAINTY_ASSIGNED_CONTEXT((#1536))
GLOBAL_UNIT_ASSIGNED_CONTEXT((#1539,#1541,#1542))
REPRESENTATION_CONTEXT('','3D')
);
#1539=(
LENGTH_UNIT()
NAMED_UNIT(*)
SI_UNIT(.MILLI.,.METRE.)
);
#1540=(
LENGTH_UNIT()
NAMED_UNIT(*)
SI_UNIT(.CENTI.,.METRE.)
);
#1541=(
NAMED_UNIT(*)
PLANE_ANGLE_UNIT()
SI_UNIT($,.RADIAN.)
);
#1542=(
NAMED_UNIT(*)
SI_UNIT($,.STERADIAN.)
SOLID_ANGLE_UNIT()
);
#1543=SHAPE_DEFINITION_REPRESENTATION(#1544,#1545);
#1544=PRODUCT_DEFINITION_SHAPE('',$,#1547);
#1545=SHAPE_REPRESENTATION('',(#951),#1537);
#1546=PRODUCT_DEFINITION_CONTEXT('part definition',#1551,'design');
#1547=PRODUCT_DEFINITION('POM-5038P-C3310-R','POM-5038P-C3310-R',#1548,
#1546);
#1548=PRODUCT_DEFINITION_FORMATION('',$,#1553);
#1549=PRODUCT_RELATED_PRODUCT_CATEGORY('POM-5038P-C3310-R',
'POM-5038P-C3310-R',(#1553));
#1550=APPLICATION_PROTOCOL_DEFINITION('international standard',
'automotive_design',2009,#1551);
#1551=APPLICATION_CONTEXT(
'Core Data for Automotive Mechanical Design Process');
#1552=PRODUCT_CONTEXT('part definition',#1551,'mechanical');
#1553=PRODUCT('POM-5038P-C3310-R','POM-5038P-C3310-R',$,(#1552));
#1554=PRESENTATION_STYLE_ASSIGNMENT((#1562));
#1555=PRESENTATION_STYLE_ASSIGNMENT((#1563));
#1556=PRESENTATION_STYLE_ASSIGNMENT((#1564));
#1557=PRESENTATION_STYLE_ASSIGNMENT((#1565));
#1558=PRESENTATION_STYLE_ASSIGNMENT((#1566));
#1559=PRESENTATION_STYLE_ASSIGNMENT((#1567));
#1560=PRESENTATION_STYLE_ASSIGNMENT((#1568));
#1561=PRESENTATION_STYLE_ASSIGNMENT((#1569));
#1562=SURFACE_STYLE_USAGE(.BOTH.,#1582);
#1563=SURFACE_STYLE_USAGE(.BOTH.,#1583);
#1564=SURFACE_STYLE_USAGE(.BOTH.,#1584);
#1565=SURFACE_STYLE_USAGE(.BOTH.,#1585);
#1566=SURFACE_STYLE_USAGE(.BOTH.,#1586);
#1567=SURFACE_STYLE_USAGE(.BOTH.,#1587);
#1568=SURFACE_STYLE_USAGE(.BOTH.,#1588);
#1569=SURFACE_STYLE_USAGE(.BOTH.,#1589);
#1570=SURFACE_STYLE_RENDERING_WITH_PROPERTIES($,#1614,(#1576));
#1571=SURFACE_STYLE_RENDERING_WITH_PROPERTIES($,#1615,(#1577));
#1572=SURFACE_STYLE_RENDERING_WITH_PROPERTIES($,#1616,(#1578));
#1573=SURFACE_STYLE_RENDERING_WITH_PROPERTIES($,#1617,(#1579));
#1574=SURFACE_STYLE_RENDERING_WITH_PROPERTIES($,#1618,(#1580));
#1575=SURFACE_STYLE_RENDERING_WITH_PROPERTIES($,#1620,(#1581));
#1576=SURFACE_STYLE_TRANSPARENT(0.);
#1577=SURFACE_STYLE_TRANSPARENT(0.);
#1578=SURFACE_STYLE_TRANSPARENT(0.);
#1579=SURFACE_STYLE_TRANSPARENT(0.);
#1580=SURFACE_STYLE_TRANSPARENT(0.);
#1581=SURFACE_STYLE_TRANSPARENT(0.);
#1582=SURFACE_SIDE_STYLE('',(#1590,#1570));
#1583=SURFACE_SIDE_STYLE('',(#1591,#1571));
#1584=SURFACE_SIDE_STYLE('',(#1592,#1572));
#1585=SURFACE_SIDE_STYLE('',(#1593,#1573));
#1586=SURFACE_SIDE_STYLE('',(#1594,#1574));
#1587=SURFACE_SIDE_STYLE('',(#1595));
#1588=SURFACE_SIDE_STYLE('',(#1596,#1575));
#1589=SURFACE_SIDE_STYLE('',(#1597));
#1590=SURFACE_STYLE_FILL_AREA(#1598);
#1591=SURFACE_STYLE_FILL_AREA(#1599);
#1592=SURFACE_STYLE_FILL_AREA(#1600);
#1593=SURFACE_STYLE_FILL_AREA(#1601);
#1594=SURFACE_STYLE_FILL_AREA(#1602);
#1595=SURFACE_STYLE_FILL_AREA(#1603);
#1596=SURFACE_STYLE_FILL_AREA(#1604);
#1597=SURFACE_STYLE_FILL_AREA(#1605);
#1598=FILL_AREA_STYLE('',(#1606));
#1599=FILL_AREA_STYLE('',(#1607));
#1600=FILL_AREA_STYLE('',(#1608));
#1601=FILL_AREA_STYLE('',(#1609));
#1602=FILL_AREA_STYLE('',(#1610));
#1603=FILL_AREA_STYLE('',(#1611));
#1604=FILL_AREA_STYLE('',(#1612));
#1605=FILL_AREA_STYLE('',(#1613));
#1606=FILL_AREA_STYLE_COLOUR('',#1614);
#1607=FILL_AREA_STYLE_COLOUR('',#1615);
#1608=FILL_AREA_STYLE_COLOUR('',#1616);
#1609=FILL_AREA_STYLE_COLOUR('',#1617);
#1610=FILL_AREA_STYLE_COLOUR('',#1618);
#1611=FILL_AREA_STYLE_COLOUR('',#1619);
#1612=FILL_AREA_STYLE_COLOUR('',#1620);
#1613=FILL_AREA_STYLE_COLOUR('',#1621);
#1614=COLOUR_RGB('',0.749019607843137,0.749019607843137,0.749019607843137);
#1615=COLOUR_RGB('',0.996078431372549,0.835294117647059,0.);
#1616=COLOUR_RGB('',0.701960784313725,0.552941176470588,0.00392156862745098);
#1617=COLOUR_RGB('',0.109803921568627,0.576470588235294,0.247058823529412);
#1618=COLOUR_RGB('',0.956862745098039,0.956862745098039,0.956862745098039);
#1619=COLOUR_RGB('',0.309803921568627,0.309803921568627,0.309803921568627);
#1620=COLOUR_RGB('',0.109803921568627,0.470588235294118,0.109803921568627);
#1621=COLOUR_RGB('',0.694117647058824,0.694117647058824,0.694117647058824);
ENDSEC;
END-ISO-10303-21;
